<svg width="598" height="351" viewBox="0 0 598 351" fill="none" xmlns="http://www.w3.org/2000/svg">
<rect y="0.5" width="597" height="349" rx="16" fill="white"/>
<mask id="mask0_223_5898" style="mask-type:alpha" maskUnits="userSpaceOnUse" x="49" y="75" width="548" height="275">
<rect width="548" height="274" transform="translate(49 75.5)" fill="url(#paint0_linear_223_5898)"/>
</mask>
<g mask="url(#mask0_223_5898)">
<path opacity="0.2" d="M68.7197 316.431L49 349.5H597V75.5L589.216 122.741H578.837C576.069 130.615 570.327 146.362 569.496 146.362C568.666 146.362 563.269 155.81 560.674 160.535L538.36 174.707L525.386 193.603L504.629 174.707L493.731 160.535L478.163 193.603H462.076L448.583 160.535C443.394 155.81 432.808 146.362 431.977 146.362C431.147 146.362 424.366 136.914 421.08 132.19H412.777L393.057 146.362L375.932 160.535L368.148 193.603L344.795 207.776L332.86 221.948L319.367 245.569L306.394 276.571H300.686L285.117 279.524L270.068 245.569L257.095 221.948H249.311L235.818 207.776L216.617 221.948H198.455L180.292 245.569L162.129 273.914L148.636 302.259L134.106 316.431L114.386 302.259L98.8182 316.431L83.25 330.604L68.7197 316.431Z" fill="#007AFF"/>
</g>
<path d="M49 349.5L68.7197 316.431L83.25 330.603L98.8182 316.431L114.386 302.259L134.106 316.431L148.636 302.259L162.129 273.914L180.292 245.569L198.455 221.948H216.617L235.818 207.776L249.311 221.948H257.095L270.068 245.569L285.117 279.524L300.686 276.571H306.394L319.367 245.569L332.86 221.948L344.795 207.776L368.148 193.603L375.932 160.534L393.057 146.362L412.777 132.19H421.08C424.366 136.914 431.147 146.362 431.977 146.362C432.808 146.362 443.394 155.81 448.583 160.534L462.076 193.603H478.163L493.731 160.534L504.629 174.707L525.386 193.603L538.36 174.707L560.674 160.534C563.269 155.81 568.666 146.362 569.496 146.362C570.326 146.362 576.069 130.615 578.837 122.741H589.216L597 75.5" stroke="#007AFF" stroke-width="1.4" stroke-linecap="round" stroke-linejoin="round"/>
<g opacity="0.2">
<rect x="399.281" y="118.781" width="29.4375" height="29.4375" rx="14.7188" stroke="#007AFF" stroke-width="8.5625"/>
</g>
<rect x="405" y="123.5" width="18" height="18" rx="9" fill="black"/>
<rect x="405" y="123.5" width="18" height="18" rx="9" stroke="white" stroke-width="4"/>
<path d="M365 186.5C367.761 186.5 370 188.739 370 191.5C370 194.261 367.761 196.5 365 196.5C362.239 196.5 360 194.261 360 191.5C360 188.739 362.239 186.5 365 186.5Z" fill="#007AFF"/>
<path d="M365 186.5C367.761 186.5 370 188.739 370 191.5C370 194.261 367.761 196.5 365 196.5C362.239 196.5 360 194.261 360 191.5C360 188.739 362.239 186.5 365 186.5Z" stroke="white" stroke-width="2"/>
<path d="M284 273.5C286.761 273.5 289 275.739 289 278.5C289 281.261 286.761 283.5 284 283.5C281.239 283.5 279 281.261 279 278.5C279 275.739 281.239 273.5 284 273.5Z" fill="#007AFF"/>
<path d="M284 273.5C286.761 273.5 289 275.739 289 278.5C289 281.261 286.761 283.5 284 283.5C281.239 283.5 279 281.261 279 278.5C279 275.739 281.239 273.5 284 273.5Z" stroke="white" stroke-width="2"/>
<path d="M524 187.5C526.761 187.5 529 189.739 529 192.5C529 195.261 526.761 197.5 524 197.5C521.239 197.5 519 195.261 519 192.5C519 189.739 521.239 187.5 524 187.5Z" fill="#007AFF"/>
<path d="M524 187.5C526.761 187.5 529 189.739 529 192.5C529 195.261 526.761 197.5 524 197.5C521.239 197.5 519 195.261 519 192.5C519 189.739 521.239 187.5 524 187.5Z" stroke="white" stroke-width="2"/>
<g filter="url(#filter0_d_223_5898)">
<path d="M556 151.5C556 148.186 558.686 145.5 562 145.5V145.5C565.314 145.5 568 148.186 568 151.5V151.5C568 154.814 565.314 157.5 562 157.5V157.5C558.686 157.5 556 154.814 556 151.5V151.5Z" fill="#007AFF"/>
<path d="M562 146.5C564.761 146.5 567 148.739 567 151.5C567 154.261 564.761 156.5 562 156.5C559.239 156.5 557 154.261 557 151.5C557 148.739 559.239 146.5 562 146.5Z" stroke="white" stroke-width="2"/>
</g>
<path d="M57 330.5C59.7614 330.5 62 332.739 62 335.5C62 338.261 59.7614 340.5 57 340.5C54.2386 340.5 52 338.261 52 335.5C52 332.739 54.2386 330.5 57 330.5Z" fill="#007AFF"/>
<path d="M57 330.5C59.7614 330.5 62 332.739 62 335.5C62 338.261 59.7614 340.5 57 340.5C54.2386 340.5 52 338.261 52 335.5C52 332.739 54.2386 330.5 57 330.5Z" stroke="white" stroke-width="2"/>
<path d="M111 298.5C113.761 298.5 116 300.739 116 303.5C116 306.261 113.761 308.5 111 308.5C108.239 308.5 106 306.261 106 303.5C106 300.739 108.239 298.5 111 298.5Z" fill="#007AFF"/>
<path d="M111 298.5C113.761 298.5 116 300.739 116 303.5C116 306.261 113.761 308.5 111 308.5C108.239 308.5 106 306.261 106 303.5C106 300.739 108.239 298.5 111 298.5Z" stroke="white" stroke-width="2"/>
<path d="M169 255.5C171.761 255.5 174 257.739 174 260.5C174 263.261 171.761 265.5 169 265.5C166.239 265.5 164 263.261 164 260.5C164 257.739 166.239 255.5 169 255.5Z" fill="#007AFF"/>
<path d="M169 255.5C171.761 255.5 174 257.739 174 260.5C174 263.261 171.761 265.5 169 265.5C166.239 265.5 164 263.261 164 260.5C164 257.739 166.239 255.5 169 255.5Z" stroke="white" stroke-width="2"/>
<g filter="url(#filter1_dd_223_5898)">
<path d="M313 30.5C313 26.0817 316.582 22.5 321 22.5H506C510.418 22.5 514 26.0817 514 30.5V104.5C514 108.918 510.418 112.5 506 112.5H321C316.582 112.5 313 108.918 313 104.5V30.5Z" fill="#0C111D"/>
<path d="M335.742 50.5156C335.742 50.2969 335.708 50.1042 335.641 49.9375C335.578 49.7656 335.477 49.6094 335.336 49.4688C335.19 49.3281 335 49.2005 334.766 49.0859C334.536 48.9661 334.258 48.849 333.93 48.7344C333.404 48.5469 332.924 48.349 332.492 48.1406C332.06 47.9323 331.693 47.6901 331.391 47.4141C331.083 47.138 330.846 46.8177 330.68 46.4531C330.513 46.0833 330.43 45.6458 330.43 45.1406C330.43 44.6979 330.505 44.2943 330.656 43.9297C330.807 43.5599 331.021 43.2396 331.297 42.9688C331.573 42.6979 331.906 42.4792 332.297 42.3125C332.688 42.1458 333.122 42.0391 333.602 41.9922V40.3125H334.852V42.0078C335.32 42.0703 335.742 42.1979 336.117 42.3906C336.492 42.5833 336.812 42.8333 337.078 43.1406C337.339 43.4531 337.539 43.8203 337.68 44.2422C337.826 44.6589 337.898 45.1276 337.898 45.6484H335.727C335.727 45.3151 335.685 45.0234 335.602 44.7734C335.518 44.5234 335.401 44.3177 335.25 44.1562C335.115 44.0156 334.951 43.9089 334.758 43.8359C334.57 43.763 334.362 43.7266 334.133 43.7266C333.867 43.7266 333.635 43.763 333.438 43.8359C333.245 43.9036 333.086 44 332.961 44.125C332.836 44.2552 332.742 44.4062 332.68 44.5781C332.622 44.75 332.594 44.9375 332.594 45.1406C332.594 45.3438 332.622 45.526 332.68 45.6875C332.742 45.8438 332.846 45.9896 332.992 46.125C333.133 46.2604 333.32 46.3906 333.555 46.5156C333.789 46.6354 334.081 46.7578 334.43 46.8828C334.956 47.0807 335.432 47.2865 335.859 47.5C336.286 47.7083 336.654 47.9505 336.961 48.2266C337.263 48.5078 337.495 48.8333 337.656 49.2031C337.823 49.5677 337.906 50 337.906 50.5C337.906 50.9583 337.831 51.3724 337.68 51.7422C337.529 52.1068 337.312 52.4219 337.031 52.6875C336.75 52.9531 336.411 53.1667 336.016 53.3281C335.62 53.4844 335.177 53.5859 334.688 53.6328V55.1641H333.445V53.6328C333.003 53.5911 332.573 53.4948 332.156 53.3438C331.74 53.1875 331.372 52.9635 331.055 52.6719C330.732 52.3802 330.474 52.013 330.281 51.5703C330.089 51.1224 329.992 50.5859 329.992 49.9609H332.172C332.172 50.3359 332.227 50.651 332.336 50.9062C332.445 51.1562 332.589 51.3542 332.766 51.5C332.938 51.651 333.135 51.7578 333.359 51.8203C333.583 51.8828 333.812 51.9141 334.047 51.9141C334.344 51.9141 334.602 51.8776 334.82 51.8047C335.039 51.7266 335.219 51.6198 335.359 51.4844C335.484 51.3646 335.578 51.2214 335.641 51.0547C335.708 50.888 335.742 50.7083 335.742 50.5156ZM347.148 53.5H339.391V52.0156L343.07 48.0625C343.357 47.75 343.599 47.4661 343.797 47.2109C343.995 46.9557 344.156 46.7214 344.281 46.5078C344.401 46.2995 344.487 46.1042 344.539 45.9219C344.596 45.7396 344.625 45.5625 344.625 45.3906C344.625 45.1354 344.589 44.9089 344.516 44.7109C344.443 44.513 344.341 44.3438 344.211 44.2031C344.076 44.0677 343.914 43.9635 343.727 43.8906C343.544 43.8177 343.341 43.7812 343.117 43.7812C342.826 43.7812 342.568 43.8229 342.344 43.9062C342.125 43.9844 341.943 44.1016 341.797 44.2578C341.646 44.4193 341.531 44.6198 341.453 44.8594C341.375 45.099 341.336 45.3724 341.336 45.6797H339.156C339.156 45.1745 339.253 44.6979 339.445 44.25C339.638 43.7969 339.911 43.401 340.266 43.0625C340.615 42.724 341.036 42.4583 341.531 42.2656C342.031 42.0677 342.583 41.9688 343.188 41.9688C343.766 41.9688 344.276 42.0495 344.719 42.2109C345.167 42.3724 345.542 42.599 345.844 42.8906C346.141 43.1823 346.367 43.5339 346.523 43.9453C346.68 44.3516 346.758 44.8021 346.758 45.2969C346.758 45.6719 346.698 46.0312 346.578 46.375C346.464 46.7135 346.299 47.0495 346.086 47.3828C345.867 47.7161 345.607 48.0573 345.305 48.4062C345.003 48.75 344.667 49.112 344.297 49.4922L342.156 51.7578H347.148V53.5ZM356.727 49.1719C356.727 49.9062 356.641 50.5547 356.469 51.1172C356.302 51.6745 356.06 52.1406 355.742 52.5156C355.424 52.8958 355.036 53.1823 354.578 53.375C354.12 53.5677 353.604 53.6641 353.031 53.6641C352.464 53.6641 351.951 53.5677 351.492 53.375C351.034 53.1823 350.646 52.8958 350.328 52.5156C350.005 52.1406 349.755 51.6745 349.578 51.1172C349.406 50.5547 349.32 49.9062 349.32 49.1719V46.4531C349.32 45.7188 349.406 45.0729 349.578 44.5156C349.75 43.9531 349.997 43.4818 350.32 43.1016C350.638 42.7266 351.023 42.4427 351.477 42.25C351.935 42.0573 352.448 41.9609 353.016 41.9609C353.589 41.9609 354.104 42.0573 354.562 42.25C355.021 42.4427 355.411 42.7266 355.734 43.1016C356.052 43.4818 356.297 43.9531 356.469 44.5156C356.641 45.0729 356.727 45.7188 356.727 46.4531V49.1719ZM351.508 48.2344L354.539 45.9766C354.529 45.5495 354.482 45.1849 354.398 44.8828C354.32 44.5755 354.203 44.3307 354.047 44.1484C353.927 44.0026 353.779 43.8958 353.602 43.8281C353.43 43.7552 353.234 43.7188 353.016 43.7188C352.771 43.7188 352.555 43.7656 352.367 43.8594C352.185 43.9479 352.031 44.0833 351.906 44.2656C351.771 44.4583 351.669 44.7083 351.602 45.0156C351.539 45.3229 351.508 45.6875 351.508 46.1094V47.3672C351.508 47.6172 351.508 47.7839 351.508 47.8672C351.508 47.9505 351.508 48.0729 351.508 48.2344ZM354.539 49.5V48.1797C354.539 48.0078 354.539 47.8828 354.539 47.8047C354.539 47.7214 354.539 47.6042 354.539 47.4531L351.508 49.7031C351.518 50.0469 351.552 50.3516 351.609 50.6172C351.672 50.8828 351.758 51.1042 351.867 51.2812C351.992 51.4948 352.151 51.6536 352.344 51.7578C352.536 51.862 352.766 51.9141 353.031 51.9141C353.276 51.9141 353.492 51.8698 353.68 51.7812C353.867 51.6875 354.023 51.5469 354.148 51.3594C354.279 51.1615 354.375 50.9089 354.438 50.6016C354.505 50.2891 354.539 49.9219 354.539 49.5ZM365.273 49.2734H366.594V51.0312H365.273V53.5H363.102V51.0312H358.375L358.289 49.6719L363.07 42.125H365.273V49.2734ZM360.422 49.2734H363.102V45.0469L362.891 45.4219L360.422 49.2734ZM370.734 52.2422C370.734 51.8411 370.867 51.5026 371.133 51.2266C371.398 50.9453 371.768 50.8047 372.242 50.8047C372.711 50.8047 373.078 50.9427 373.344 51.2188C373.615 51.4948 373.75 51.8359 373.75 52.2422C373.75 52.6484 373.612 52.987 373.336 53.2578C373.065 53.5234 372.701 53.6562 372.242 53.6562C371.779 53.6562 371.411 53.5208 371.141 53.25C370.87 52.9792 370.734 52.6432 370.734 52.2422ZM385.555 49.1719C385.555 49.9062 385.469 50.5547 385.297 51.1172C385.13 51.6745 384.888 52.1406 384.57 52.5156C384.253 52.8958 383.865 53.1823 383.406 53.375C382.948 53.5677 382.432 53.6641 381.859 53.6641C381.292 53.6641 380.779 53.5677 380.32 53.375C379.862 53.1823 379.474 52.8958 379.156 52.5156C378.833 52.1406 378.583 51.6745 378.406 51.1172C378.234 50.5547 378.148 49.9062 378.148 49.1719V46.4531C378.148 45.7188 378.234 45.0729 378.406 44.5156C378.578 43.9531 378.826 43.4818 379.148 43.1016C379.466 42.7266 379.852 42.4427 380.305 42.25C380.763 42.0573 381.276 41.9609 381.844 41.9609C382.417 41.9609 382.932 42.0573 383.391 42.25C383.849 42.4427 384.24 42.7266 384.562 43.1016C384.88 43.4818 385.125 43.9531 385.297 44.5156C385.469 45.0729 385.555 45.7188 385.555 46.4531V49.1719ZM380.336 48.2344L383.367 45.9766C383.357 45.5495 383.31 45.1849 383.227 44.8828C383.148 44.5755 383.031 44.3307 382.875 44.1484C382.755 44.0026 382.607 43.8958 382.43 43.8281C382.258 43.7552 382.062 43.7188 381.844 43.7188C381.599 43.7188 381.383 43.7656 381.195 43.8594C381.013 43.9479 380.859 44.0833 380.734 44.2656C380.599 44.4583 380.497 44.7083 380.43 45.0156C380.367 45.3229 380.336 45.6875 380.336 46.1094V47.3672C380.336 47.6172 380.336 47.7839 380.336 47.8672C380.336 47.9505 380.336 48.0729 380.336 48.2344ZM383.367 49.5V48.1797C383.367 48.0078 383.367 47.8828 383.367 47.8047C383.367 47.7214 383.367 47.6042 383.367 47.4531L380.336 49.7031C380.346 50.0469 380.38 50.3516 380.438 50.6172C380.5 50.8828 380.586 51.1042 380.695 51.2812C380.82 51.4948 380.979 51.6536 381.172 51.7578C381.365 51.862 381.594 51.9141 381.859 51.9141C382.104 51.9141 382.32 51.8698 382.508 51.7812C382.695 51.6875 382.852 51.5469 382.977 51.3594C383.107 51.1615 383.203 50.9089 383.266 50.6016C383.333 50.2891 383.367 49.9219 383.367 49.5ZM395.195 53.5H387.438V52.0156L391.117 48.0625C391.404 47.75 391.646 47.4661 391.844 47.2109C392.042 46.9557 392.203 46.7214 392.328 46.5078C392.448 46.2995 392.534 46.1042 392.586 45.9219C392.643 45.7396 392.672 45.5625 392.672 45.3906C392.672 45.1354 392.635 44.9089 392.562 44.7109C392.49 44.513 392.388 44.3438 392.258 44.2031C392.122 44.0677 391.961 43.9635 391.773 43.8906C391.591 43.8177 391.388 43.7812 391.164 43.7812C390.872 43.7812 390.615 43.8229 390.391 43.9062C390.172 43.9844 389.99 44.1016 389.844 44.2578C389.693 44.4193 389.578 44.6198 389.5 44.8594C389.422 45.099 389.383 45.3724 389.383 45.6797H387.203C387.203 45.1745 387.299 44.6979 387.492 44.25C387.685 43.7969 387.958 43.401 388.312 43.0625C388.661 42.724 389.083 42.4583 389.578 42.2656C390.078 42.0677 390.63 41.9688 391.234 41.9688C391.812 41.9688 392.323 42.0495 392.766 42.2109C393.214 42.3724 393.589 42.599 393.891 42.8906C394.188 43.1823 394.414 43.5339 394.57 43.9453C394.727 44.3516 394.805 44.8021 394.805 45.2969C394.805 45.6719 394.745 46.0312 394.625 46.375C394.51 46.7135 394.346 47.0495 394.133 47.3828C393.914 47.7161 393.654 48.0573 393.352 48.4062C393.049 48.75 392.714 49.112 392.344 49.4922L390.203 51.7578H395.195V53.5ZM410.844 47.6875L412.703 45.0469H415.039L412.203 49.1953L415.141 53.5H412.797L410.852 50.7344L408.922 53.5H406.57L409.508 49.1953L406.68 45.0469H409.016L410.844 47.6875ZM426.305 47.8984L426.953 42.125H433.266V43.9688H428.742L428.469 46.4688C428.63 46.375 428.859 46.2786 429.156 46.1797C429.453 46.0807 429.794 46.0312 430.18 46.0312C430.727 46.0312 431.214 46.1198 431.641 46.2969C432.073 46.4688 432.438 46.7188 432.734 47.0469C433.026 47.375 433.25 47.776 433.406 48.25C433.562 48.724 433.641 49.2604 433.641 49.8594C433.641 50.3698 433.565 50.8542 433.414 51.3125C433.263 51.7708 433.031 52.1745 432.719 52.5234C432.406 52.8724 432.013 53.1484 431.539 53.3516C431.065 53.5547 430.505 53.6562 429.859 53.6562C429.37 53.6562 428.896 53.5833 428.438 53.4375C427.984 53.2917 427.581 53.0781 427.227 52.7969C426.872 52.5156 426.583 52.1719 426.359 51.7656C426.141 51.3542 426.023 50.8854 426.008 50.3594H428.148C428.201 50.8542 428.378 51.237 428.68 51.5078C428.987 51.7786 429.378 51.9141 429.852 51.9141C430.143 51.9141 430.391 51.8594 430.594 51.75C430.802 51.6406 430.971 51.4896 431.102 51.2969C431.227 51.1042 431.318 50.875 431.375 50.6094C431.438 50.3438 431.469 50.0573 431.469 49.75C431.469 49.4479 431.43 49.1719 431.352 48.9219C431.279 48.6667 431.164 48.4479 431.008 48.2656C430.852 48.0833 430.656 47.9427 430.422 47.8438C430.188 47.7448 429.911 47.6953 429.594 47.6953C429.38 47.6953 429.195 47.7135 429.039 47.75C428.883 47.7865 428.745 47.8333 428.625 47.8906C428.505 47.9479 428.398 48.0156 428.305 48.0938C428.211 48.1667 428.122 48.2448 428.039 48.3281L426.305 47.8984ZM440.831 41.74H442.687V42.188C442.687 42.7 442.602 43.196 442.431 43.676C442.271 44.156 442.026 44.604 441.695 45.02C441.364 45.4253 440.959 45.7933 440.479 46.124C440.01 46.444 439.466 46.716 438.847 46.94C438.228 47.164 437.54 47.324 436.783 47.42L435.999 45.772C436.66 45.6867 437.247 45.5587 437.759 45.388C438.282 45.2067 438.735 44.9987 439.119 44.764C439.503 44.5187 439.823 44.2573 440.079 43.98C440.335 43.7027 440.522 43.4093 440.639 43.1C440.767 42.7907 440.831 42.4867 440.831 42.188V41.74ZM441.455 41.74H443.295V42.188C443.295 42.4867 443.354 42.7907 443.471 43.1C443.599 43.4093 443.791 43.7027 444.047 43.98C444.303 44.2573 444.623 44.5187 445.007 44.764C445.402 44.9987 445.855 45.2067 446.367 45.388C446.879 45.5587 447.466 45.6867 448.127 45.772L447.343 47.42C446.586 47.324 445.898 47.164 445.279 46.94C444.66 46.716 444.111 46.444 443.631 46.124C443.162 45.7933 442.762 45.4253 442.431 45.02C442.111 44.604 441.866 44.156 441.695 43.676C441.535 43.196 441.455 42.7 441.455 42.188V41.74ZM440.943 49.5H443.071V54.924H440.943V49.5ZM435.359 48.268H448.767V49.98H435.359V48.268ZM436.543 40.86H447.535V42.54H436.543V40.86ZM470.375 40.092H472.407V54.908H470.375V40.092ZM468.599 45.756H471.063V47.452H468.599V45.756ZM467.143 40.332H469.127V54.252H467.143V40.332ZM460.103 41.612H465.943V51.212H460.103V41.612ZM463.975 43.276H462.087V49.564H463.975V43.276ZM475.974 46.7H486.39V48.412H475.974V46.7ZM474.406 51.516H487.83V53.26H474.406V51.516ZM480.038 47.484H482.15V52.076H480.038V47.484ZM475.974 41.116H486.278V42.812H478.086V47.436H475.974V41.116Z" fill="white"/>
<path d="M338.352 77.4492H337.461V67.0312H338.352V77.4492ZM329.551 71.5312C329.551 70.8008 329.643 70.1641 329.826 69.6211C330.014 69.0742 330.275 68.6523 330.611 68.3555C330.947 68.0586 331.34 67.9102 331.789 67.9102C332.23 67.9141 332.619 68.0586 332.955 68.3438C333.291 68.6289 333.553 69.0352 333.74 69.5625H335.398V67.2539H336.277V76.9219H335.398V73.5H333.74C333.553 74.0273 333.291 74.4355 332.955 74.7246C332.619 75.0137 332.23 75.1562 331.789 75.1523C331.34 75.1523 330.947 75.0059 330.611 74.7129C330.275 74.416 330.014 73.9941 329.826 73.4473C329.643 72.9004 329.551 72.2617 329.551 71.5312ZM330.406 71.502C330.406 72.0645 330.461 72.5566 330.57 72.9785C330.684 73.3965 330.844 73.7188 331.051 73.9453C331.258 74.168 331.504 74.2773 331.789 74.2734C332.07 74.2773 332.316 74.168 332.527 73.9453C332.738 73.7227 332.9 73.4043 333.014 72.9902C333.127 72.5762 333.184 72.0898 333.184 71.5312C333.184 70.9727 333.127 70.4863 333.014 70.0723C332.9 69.6543 332.738 69.334 332.527 69.1113C332.316 68.8887 332.07 68.7773 331.789 68.7773C331.508 68.7773 331.262 68.8887 331.051 69.1113C330.844 69.3301 330.684 69.6445 330.57 70.0547C330.461 70.4648 330.406 70.9473 330.406 71.502ZM333.934 70.3242C334.004 70.6914 334.039 71.0938 334.039 71.5312C334.039 71.9531 334.006 72.3516 333.939 72.7266H335.398V70.3242H333.934ZM343.273 68.7188C343.273 69.1836 343.383 69.6328 343.602 70.0664C343.824 70.4961 344.131 70.875 344.521 71.2031C344.916 71.5312 345.363 71.7812 345.863 71.9531L345.359 72.6797C344.785 72.4688 344.279 72.1582 343.842 71.748C343.408 71.334 343.076 70.8535 342.846 70.3066C342.623 70.9238 342.287 71.4629 341.838 71.9238C341.389 72.3848 340.859 72.7344 340.25 72.9727L339.758 72.2344C340.273 72.043 340.729 71.7676 341.123 71.4082C341.518 71.0488 341.824 70.6328 342.043 70.1602C342.262 69.6836 342.371 69.1797 342.371 68.6484V67.5703H343.273V68.7188ZM341.141 75.5273C341.141 75.1328 341.279 74.7949 341.557 74.5137C341.834 74.2285 342.232 74.0117 342.752 73.8633C343.271 73.7148 343.887 73.6406 344.598 73.6406C345.309 73.6406 345.92 73.7148 346.432 73.8633C346.947 74.0117 347.342 74.2285 347.615 74.5137C347.893 74.7949 348.031 75.1328 348.031 75.5273C348.031 75.9297 347.895 76.2715 347.621 76.5527C347.348 76.8379 346.953 77.0547 346.438 77.2031C345.922 77.3516 345.309 77.4258 344.598 77.4258C343.883 77.4258 343.266 77.3516 342.746 77.2031C342.23 77.0547 341.834 76.8379 341.557 76.5527C341.279 76.2676 341.141 75.9258 341.141 75.5273ZM342.066 75.5273C342.062 75.7695 342.162 75.9785 342.365 76.1543C342.568 76.3301 342.859 76.4648 343.238 76.5586C343.621 76.6523 344.074 76.6992 344.598 76.6992C345.121 76.6992 345.572 76.6523 345.951 76.5586C346.334 76.4648 346.627 76.3301 346.83 76.1543C347.037 75.9785 347.141 75.7695 347.141 75.5273C347.141 75.293 347.037 75.0898 346.83 74.918C346.627 74.7422 346.334 74.6094 345.951 74.5195C345.568 74.4258 345.117 74.3789 344.598 74.3789C344.078 74.3789 343.627 74.4258 343.244 74.5195C342.861 74.6133 342.568 74.7461 342.365 74.918C342.162 75.0898 342.062 75.293 342.066 75.5273ZM347.023 67.0312H347.938V69.75H349.508V70.5234H347.938V73.3711H347.023V67.0312ZM359.703 76.1133H350.164V75.3516H354.453V73.1016H351.289V67.7695H352.215V69.6562H357.629V67.7695H358.531V73.1016H355.355V75.3516H359.703V76.1133ZM357.629 72.3516V70.4062H352.215V72.3516H357.629ZM368.598 71.1562H370.344V71.9297H368.598V77.4727H367.684V67.0312H368.598V71.1562ZM360.992 68.0508H365.855V68.8125H361.906V74.0859C362.891 74.082 363.744 74.0527 364.467 73.998C365.189 73.9434 365.926 73.8477 366.676 73.7109L366.793 74.5078C366.02 74.6484 365.262 74.7422 364.52 74.7891C363.781 74.8359 362.879 74.8594 361.812 74.8594H360.992V68.0508ZM382.262 71.1094H383.68V71.8945H382.262V77.4492H381.348V67.0312H382.262V71.1094ZM374.129 68.0039H374.926V70.6992H376.238V68.0039H377.023V74.9297H374.129V68.0039ZM376.238 74.1562V71.4375H374.926V74.1562H376.238ZM377.586 68.0039H378.371V70.6992H379.648V68.0039H380.434V74.9297H377.586V68.0039ZM379.648 74.1562V71.4375H378.371V74.1562H379.648ZM393.828 76.1367H384.289V75.3633H393.828V76.1367ZM385.461 67.8281H392.621V70.9805H386.398V72.6914H392.867V73.4297H385.484V70.2305H391.719V68.5898H385.461V67.8281ZM403.578 77.4492H402.699V67.0312H403.578V77.4492ZM394.672 74.5312C395.781 73.875 396.631 73.0898 397.221 72.1758C397.814 71.2578 398.156 70.2422 398.246 69.1289H395.117V68.3672H399.16C399.16 69.4258 398.986 70.4062 398.639 71.3086H400.508V67.3125H401.387V76.9219H400.508V72.0586H398.299C397.643 73.3242 396.613 74.3711 395.211 75.1992L394.672 74.5312ZM410.199 74.3789H415.414V72.9961H416.328V77.3086H409.285V72.9961H410.199V74.3789ZM408.043 71.2969H415.139C415.248 70.7852 415.32 70.3184 415.355 69.8965C415.395 69.4707 415.414 69.0332 415.414 68.584V68.2734H409.25V67.5117H416.328V68.2734C416.328 68.8242 416.311 69.3223 416.275 69.7676C416.244 70.2129 416.166 70.7227 416.041 71.2969H417.582V72.0586H408.043V71.2969ZM415.414 76.5586V75.1055H410.199V76.5586H415.414ZM427.918 72.7617H418.414V71.9883H427.918V72.7617ZM419.562 75.5508C419.562 75.1562 419.705 74.8184 419.99 74.5371C420.275 74.2559 420.688 74.043 421.227 73.8984C421.766 73.75 422.41 73.6758 423.16 73.6758C423.902 73.6758 424.541 73.75 425.076 73.8984C425.611 74.043 426.021 74.2559 426.307 74.5371C426.596 74.8184 426.742 75.1562 426.746 75.5508C426.742 75.9492 426.598 76.2891 426.312 76.5703C426.027 76.8516 425.615 77.0645 425.076 77.209C424.541 77.3535 423.902 77.4258 423.16 77.4258C422.41 77.4258 421.766 77.3535 421.227 77.209C420.688 77.0645 420.275 76.8516 419.99 76.5703C419.705 76.2891 419.562 75.9492 419.562 75.5508ZM419.621 67.4531H426.734V68.2266H420.523V70.2422H426.805V70.9922H419.621V67.4531ZM420.5 75.5508C420.496 75.793 420.6 76 420.811 76.1719C421.021 76.3438 421.326 76.4746 421.725 76.5645C422.127 76.6543 422.605 76.6992 423.16 76.6992C423.711 76.6992 424.186 76.6543 424.584 76.5645C424.982 76.4746 425.287 76.3438 425.498 76.1719C425.713 76 425.82 75.793 425.82 75.5508C425.82 75.3125 425.713 75.1074 425.498 74.9355C425.283 74.7598 424.977 74.627 424.578 74.5371C424.184 74.4434 423.711 74.3945 423.16 74.3906C422.605 74.3945 422.127 74.4434 421.725 74.5371C421.326 74.627 421.021 74.7598 420.811 74.9355C420.6 75.1074 420.496 75.3125 420.5 75.5508ZM433.988 69.5859H428.762V68.8359H430.93V67.3477H431.844V68.8359H433.988V69.5859ZM429.137 72.6562C429.137 72.2031 429.232 71.7969 429.424 71.4375C429.619 71.0781 429.887 70.7969 430.227 70.5938C430.566 70.3906 430.949 70.2891 431.375 70.2891C431.809 70.2891 432.195 70.3906 432.535 70.5938C432.879 70.7969 433.146 71.0781 433.338 71.4375C433.533 71.793 433.633 72.1992 433.637 72.6562C433.633 73.1172 433.533 73.5293 433.338 73.8926C433.146 74.252 432.879 74.5352 432.535 74.7422C432.195 74.9453 431.809 75.0469 431.375 75.0469C430.949 75.0469 430.564 74.9453 430.221 74.7422C429.881 74.5352 429.615 74.252 429.424 73.8926C429.232 73.5293 429.137 73.1172 429.137 72.6562ZM429.957 72.6562C429.957 72.9609 430.018 73.2344 430.139 73.4766C430.26 73.7148 430.428 73.9023 430.643 74.0391C430.857 74.1719 431.102 74.2383 431.375 74.2383C431.648 74.2383 431.895 74.1719 432.113 74.0391C432.332 73.9023 432.504 73.7148 432.629 73.4766C432.754 73.2344 432.816 72.9609 432.816 72.6562C432.816 72.3555 432.754 72.0859 432.629 71.8477C432.504 71.6055 432.332 71.416 432.113 71.2793C431.895 71.1387 431.648 71.0664 431.375 71.0625C431.102 71.0664 430.857 71.1387 430.643 71.2793C430.428 71.416 430.26 71.6055 430.139 71.8477C430.018 72.0859 429.957 72.3555 429.957 72.6562ZM434.527 67.2891H435.395V71.4258H436.777V67.0312H437.656V77.4492H436.777V72.1875H435.395V76.9336H434.527V67.2891ZM442.824 69.832C442.824 70.4492 442.943 71.0586 443.182 71.6602C443.424 72.2617 443.752 72.7969 444.166 73.2656C444.584 73.7305 445.043 74.0781 445.543 74.3086L444.992 75.0586C444.398 74.7539 443.869 74.3086 443.404 73.7227C442.943 73.1328 442.598 72.4668 442.367 71.7246C442.133 72.5098 441.783 73.2148 441.318 73.8398C440.857 74.4648 440.332 74.9336 439.742 75.2461L439.145 74.5078C439.648 74.2617 440.109 73.8926 440.527 73.4004C440.945 72.9043 441.275 72.3438 441.518 71.7188C441.764 71.0898 441.887 70.4609 441.887 69.832V67.9336H442.824V69.832ZM444.406 70.5938H446.879V67.0312H447.793V77.4727H446.879V71.3438H444.406V70.5938ZM461.152 77.4492H460.227V67.0312H461.152V77.4492ZM452.668 74.7422C454.059 74.082 455.123 73.2617 455.861 72.2812C456.604 71.3008 457.027 70.1797 457.133 68.918H453.148V68.168H458.07C458.062 69.7383 457.664 71.1504 456.875 72.4043C456.086 73.6582 454.852 74.6875 453.172 75.4922L452.668 74.7422ZM472.438 73.3008H468.195V75.3398H467.281V73.3008H462.898V72.5508H472.438V73.3008ZM464.117 74.3789H465.031V76.4531H471.371V77.2266H464.117V74.3789ZM464.176 67.3711H465.09V68.707H470.246V67.3711H471.16V71.5312H464.176V67.3711ZM470.246 70.7812V69.4102H465.09V70.7812H470.246ZM481.484 71.3672H485.82V72.1289H476.281V71.3672H480.582V70.1367H481.484V71.3672ZM476.797 70.0781C477.406 70.0273 477.984 69.9121 478.531 69.7324C479.078 69.5488 479.525 69.3145 479.873 69.0293C480.221 68.7441 480.408 68.4297 480.436 68.0859H477.16V67.3594H484.941V68.0859H481.643C481.67 68.4297 481.855 68.7441 482.199 69.0293C482.547 69.3145 482.994 69.5488 483.541 69.7324C484.088 69.9121 484.668 70.0273 485.281 70.0781L484.977 70.7695C484.387 70.7148 483.826 70.6035 483.295 70.4355C482.768 70.2637 482.307 70.043 481.912 69.7734C481.518 69.5 481.229 69.1855 481.045 68.8301C480.861 69.1855 480.572 69.5 480.178 69.7734C479.783 70.043 479.318 70.2637 478.783 70.4355C478.252 70.6035 477.691 70.7148 477.102 70.7695L476.797 70.0781ZM477.184 73.5117H480.582V72.5273H481.496V73.5117H484.918V74.2383H477.184V73.5117ZM477.898 76.125C477.895 75.6758 478.162 75.3359 478.701 75.1055C479.24 74.875 480.02 74.7578 481.039 74.7539C482.055 74.7578 482.834 74.877 483.377 75.1113C483.92 75.3418 484.191 75.6797 484.191 76.125C484.191 76.5742 483.922 76.916 483.383 77.1504C482.844 77.3887 482.074 77.5078 481.074 77.5078C480.043 77.5078 479.254 77.3906 478.707 77.1562C478.164 76.9258 477.895 76.582 477.898 76.125ZM478.824 76.125C478.824 76.3633 479.018 76.5469 479.404 76.6758C479.791 76.8086 480.336 76.8711 481.039 76.8633C481.742 76.8672 482.285 76.8047 482.668 76.6758C483.055 76.5508 483.25 76.3672 483.254 76.125C483.25 75.8867 483.059 75.707 482.68 75.5859C482.301 75.4648 481.754 75.4023 481.039 75.3984C480.328 75.4023 479.781 75.4648 479.398 75.5859C479.016 75.707 478.824 75.8867 478.824 76.125ZM495.582 77.4492H494.703V67.0312H495.582V77.4492ZM486.676 74.5312C487.785 73.875 488.635 73.0898 489.225 72.1758C489.818 71.2578 490.16 70.2422 490.25 69.1289H487.121V68.3672H491.164C491.164 69.4258 490.99 70.4062 490.643 71.3086H492.512V67.3125H493.391V76.9219H492.512V72.0586H490.303C489.646 73.3242 488.617 74.3711 487.215 75.1992L486.676 74.5312ZM338.023 93.4492H337.109V90.5664H331.016V89.793H338.023V93.4492ZM329.668 86.1133C329.668 85.6367 329.785 85.2129 330.02 84.8418C330.254 84.4707 330.578 84.1816 330.992 83.9746C331.406 83.7676 331.875 83.6641 332.398 83.6641C332.922 83.6641 333.391 83.7676 333.805 83.9746C334.219 84.1816 334.543 84.4707 334.777 84.8418C335.012 85.2129 335.129 85.6367 335.129 86.1133C335.129 86.5938 335.012 87.0215 334.777 87.3965C334.543 87.7715 334.219 88.0645 333.805 88.2754C333.391 88.4824 332.922 88.5859 332.398 88.5859C331.875 88.5859 331.404 88.4824 330.986 88.2754C330.572 88.0645 330.248 87.7715 330.014 87.3965C329.783 87.0215 329.668 86.5938 329.668 86.1133ZM330.57 86.1133C330.566 86.4414 330.643 86.7344 330.799 86.9922C330.955 87.2461 331.172 87.4434 331.449 87.584C331.727 87.7246 332.043 87.793 332.398 87.7891C332.75 87.793 333.064 87.7246 333.342 87.584C333.619 87.4434 333.836 87.2461 333.992 86.9922C334.148 86.7344 334.227 86.4414 334.227 86.1133C334.227 85.793 334.148 85.5078 333.992 85.2578C333.836 85.0039 333.619 84.8066 333.342 84.666C333.064 84.5215 332.75 84.4492 332.398 84.4492C332.043 84.4492 331.727 84.5215 331.449 84.666C331.172 84.8066 330.955 85.0039 330.799 85.2578C330.643 85.5078 330.566 85.793 330.57 86.1133ZM337.109 83.0312H338.023V89.2305H337.109V83.0312ZM343.402 84.6484C343.402 85.0547 343.51 85.4531 343.725 85.8438C343.939 86.2305 344.24 86.5742 344.627 86.875C345.018 87.1758 345.461 87.4062 345.957 87.5664L345.5 88.293C344.91 88.1016 344.393 87.8125 343.947 87.4258C343.506 87.0391 343.172 86.5918 342.945 86.084C342.711 86.6465 342.361 87.1445 341.896 87.5781C341.436 88.0078 340.902 88.3281 340.297 88.5391L339.84 87.8125C340.344 87.6367 340.795 87.3848 341.193 87.0566C341.596 86.7285 341.91 86.3535 342.137 85.9316C342.363 85.5098 342.477 85.0781 342.477 84.6367V84.3438H340.121V83.582H345.734V84.3438H343.402V84.6484ZM341.668 88.9375H348.418V91.4336H342.605V92.5938H348.816V93.332H341.691V90.7305H347.504V89.6875H341.668V88.9375ZM345.406 85.3633H347.504V83.0312H348.418V88.4219H347.504V86.125H345.406V85.3633ZM351.266 92.5703C351.129 92.5703 351.002 92.5352 350.885 92.4648C350.771 92.3945 350.68 92.3027 350.609 92.1895C350.543 92.0723 350.512 91.9453 350.516 91.8086C350.512 91.6758 350.543 91.5527 350.609 91.4395C350.68 91.3223 350.771 91.2305 350.885 91.1641C351.002 91.0938 351.129 91.0586 351.266 91.0586C351.398 91.0586 351.521 91.0918 351.635 91.1582C351.752 91.2246 351.844 91.3145 351.91 91.4277C351.98 91.541 352.016 91.6641 352.016 91.7969C352.016 92.0078 351.943 92.1895 351.799 92.3418C351.654 92.4902 351.477 92.5664 351.266 92.5703ZM360.945 83.2539C361.699 83.2539 362.352 83.334 362.902 83.4941C363.453 83.6543 363.877 83.8848 364.174 84.1855C364.475 84.4824 364.625 84.8359 364.625 85.2461C364.621 85.6016 364.508 85.9141 364.285 86.1836C364.066 86.4531 363.75 86.6738 363.336 86.8457V88.3516H365.691V89.1016H356.199V88.3516H358.555V86.8457C358.137 86.6777 357.814 86.459 357.588 86.1895C357.365 85.916 357.254 85.6016 357.254 85.2461C357.254 84.8359 357.402 84.4824 357.699 84.1855C358 83.8848 358.428 83.6543 358.982 83.4941C359.537 83.334 360.191 83.2539 360.945 83.2539ZM357.254 90.0859H364.52V93.4492H363.594V90.8359H357.254V90.0859ZM358.203 85.2461C358.203 85.5039 358.312 85.7266 358.531 85.9141C358.754 86.1016 359.072 86.2461 359.486 86.3477C359.9 86.4492 360.387 86.5 360.945 86.5C361.5 86.5 361.982 86.4492 362.393 86.3477C362.807 86.2461 363.125 86.1016 363.348 85.9141C363.574 85.7266 363.688 85.5039 363.688 85.2461C363.688 84.9844 363.574 84.7598 363.348 84.5723C363.125 84.3848 362.807 84.2422 362.393 84.1445C361.982 84.043 361.5 83.9922 360.945 83.9922C360.383 83.9922 359.895 84.043 359.48 84.1445C359.07 84.2422 358.754 84.3848 358.531 84.5723C358.312 84.7598 358.203 84.9844 358.203 85.2461ZM362.422 88.3516V87.1035C361.984 87.1855 361.492 87.2266 360.945 87.2266C360.402 87.2266 359.91 87.1855 359.469 87.1035V88.3516H362.422ZM375.172 88.9609H374.258V83.043H375.172V88.9609ZM366.652 87.9648C367.172 87.7812 367.635 87.5137 368.041 87.1621C368.447 86.8066 368.762 86.3965 368.984 85.9316C369.211 85.4629 369.324 84.9766 369.324 84.4727V83.4531H370.262V84.4727C370.258 84.9531 370.369 85.4141 370.596 85.8555C370.822 86.293 371.137 86.6797 371.539 87.0156C371.941 87.3477 372.398 87.6055 372.91 87.7891L372.441 88.4922C371.836 88.2852 371.303 87.9707 370.842 87.5488C370.381 87.123 370.033 86.627 369.799 86.0605C369.568 86.666 369.219 87.1992 368.75 87.6602C368.285 88.1172 367.742 88.4609 367.121 88.6914L366.652 87.9648ZM368.398 89.5586H375.172V93.3086H368.398V89.5586ZM374.27 92.5586V90.3086H369.301V92.5586H374.27ZM385.836 93.4492H384.934V88.0586H383.434V92.9102H382.566V83.2656H383.434V87.2734H384.934V83.0312H385.836V93.4492ZM377.469 84.3086H378.383V89.9336C379.578 89.9258 380.715 89.8125 381.793 89.5938L381.91 90.4141C381.223 90.5391 380.572 90.627 379.959 90.6777C379.35 90.7285 378.734 90.7539 378.113 90.7539H377.469V84.3086ZM391.039 86.2305C391.039 86.8047 391.166 87.377 391.42 87.9473C391.678 88.5176 392.021 89.0254 392.451 89.4707C392.885 89.9121 393.355 90.2422 393.863 90.4609L393.348 91.1875C392.734 90.9102 392.182 90.4883 391.689 89.9219C391.201 89.3555 390.836 88.7129 390.594 87.9941C390.352 88.7559 389.984 89.4473 389.492 90.0684C389.004 90.6855 388.461 91.1445 387.863 91.4453L387.312 90.7188C387.809 90.4805 388.27 90.1211 388.695 89.6406C389.125 89.1602 389.469 88.6191 389.727 88.0176C389.984 87.4121 390.113 86.8164 390.113 86.2305V84.8711H387.652V84.1094H393.523V84.8711H391.039V86.2305ZM394.977 83.0312H395.902V93.4492H394.977V83.0312ZM403.602 83.6289C404.117 83.6289 404.58 83.7324 404.99 83.9395C405.4 84.1426 405.723 84.4277 405.957 84.7949C406.191 85.1582 406.309 85.5703 406.309 86.0312C406.309 86.5 406.191 86.918 405.957 87.2852C405.723 87.6484 405.4 87.9336 404.99 88.1406C404.58 88.3438 404.117 88.4453 403.602 88.4453C403.086 88.4453 402.621 88.3438 402.207 88.1406C401.797 87.9336 401.475 87.6465 401.24 87.2793C401.01 86.9121 400.895 86.4961 400.895 86.0312C400.895 85.5703 401.01 85.1582 401.24 84.7949C401.475 84.4277 401.799 84.1426 402.213 83.9395C402.627 83.7324 403.09 83.6289 403.602 83.6289ZM401.797 86.0312C401.797 86.3438 401.875 86.627 402.031 86.8809C402.188 87.1309 402.402 87.3281 402.676 87.4727C402.953 87.6133 403.262 87.6836 403.602 87.6836C403.941 87.6836 404.248 87.6133 404.521 87.4727C404.799 87.3281 405.016 87.1309 405.172 86.8809C405.328 86.627 405.406 86.3438 405.406 86.0312C405.406 85.7227 405.328 85.4453 405.172 85.1992C405.016 84.9492 404.799 84.7539 404.521 84.6133C404.248 84.4727 403.941 84.4023 403.602 84.4023C403.266 84.4023 402.959 84.4727 402.682 84.6133C402.404 84.7539 402.188 84.9492 402.031 85.1992C401.875 85.4453 401.797 85.7227 401.797 86.0312ZM401.809 89.3711H402.699V92.4121C403.508 92.3809 404.223 92.2617 404.844 92.0547L404.984 92.793C404.199 93.0508 403.305 93.1758 402.301 93.168H401.809V89.3711ZM404.621 89.418H406.812V88.4922H407.715V89.418H409.883V90.1328H404.621V89.418ZM405.312 91.9609C405.312 91.6641 405.393 91.4043 405.553 91.1816C405.713 90.959 405.939 90.7871 406.232 90.666C406.525 90.5449 406.863 90.4844 407.246 90.4844C407.625 90.4844 407.961 90.5449 408.254 90.666C408.551 90.7871 408.781 90.959 408.945 91.1816C409.113 91.4043 409.199 91.6641 409.203 91.9609C409.199 92.2578 409.113 92.5156 408.945 92.7344C408.781 92.957 408.551 93.127 408.254 93.2441C407.961 93.3652 407.625 93.4258 407.246 93.4258C406.863 93.4258 406.525 93.3652 406.232 93.2441C405.939 93.127 405.713 92.957 405.553 92.7344C405.393 92.5156 405.312 92.2578 405.312 91.9609ZM406.133 91.9609C406.133 92.2031 406.236 92.3965 406.443 92.541C406.65 92.6895 406.918 92.7656 407.246 92.7695C407.574 92.7656 407.842 92.6895 408.049 92.541C408.256 92.3965 408.359 92.2031 408.359 91.9609C408.359 91.7227 408.256 91.5293 408.049 91.3809C407.842 91.2324 407.574 91.1562 407.246 91.1523C406.918 91.1562 406.65 91.2324 406.443 91.3809C406.236 91.5293 406.133 91.7227 406.133 91.9609ZM407.926 83.0312H408.84V85.3867H410.41V86.1484H408.84V88.2461H407.926V83.0312ZM420.559 89.2773H411.066V88.5273H420.559V89.2773ZM412.121 85.4688C412.121 85.0391 412.27 84.668 412.566 84.3555C412.867 84.043 413.295 83.8066 413.85 83.6465C414.408 83.4824 415.062 83.4023 415.812 83.4062C416.555 83.4023 417.203 83.4824 417.758 83.6465C418.312 83.8066 418.74 84.043 419.041 84.3555C419.342 84.668 419.492 85.0391 419.492 85.4688C419.492 85.8945 419.34 86.2637 419.035 86.5762C418.734 86.8887 418.307 87.1289 417.752 87.2969C417.201 87.4609 416.555 87.543 415.812 87.543C415.062 87.543 414.41 87.4609 413.855 87.2969C413.301 87.1289 412.873 86.8887 412.572 86.5762C412.271 86.2637 412.121 85.8945 412.121 85.4688ZM412.297 90.1914H413.223V92.4531H419.504V93.2266H412.297V90.1914ZM413.07 85.4688C413.07 85.7422 413.182 85.9785 413.404 86.1777C413.627 86.377 413.943 86.5293 414.354 86.6348C414.768 86.7402 415.254 86.793 415.812 86.793C416.367 86.793 416.85 86.7402 417.26 86.6348C417.674 86.5293 417.992 86.377 418.215 86.1777C418.441 85.9785 418.555 85.7422 418.555 85.4688C418.555 85.1992 418.441 84.9648 418.215 84.7656C417.992 84.5664 417.674 84.4141 417.26 84.3086C416.846 84.1992 416.363 84.1445 415.812 84.1445C415.258 84.1445 414.773 84.1992 414.359 84.3086C413.945 84.4141 413.627 84.5664 413.404 84.7656C413.182 84.9648 413.07 85.1992 413.07 85.4688ZM434.199 87.9648H432.512V93.4492H431.598V83.0312H432.512V87.1914H434.199V87.9648ZM424.883 84.0625H425.797V90.0273C426.609 90.0273 427.406 89.9902 428.188 89.916C428.973 89.8418 429.773 89.7188 430.59 89.5469L430.707 90.332C429.859 90.5039 429.029 90.625 428.217 90.6953C427.404 90.7656 426.57 90.8008 425.715 90.8008H424.883V84.0625ZM435.617 94.9023H434.75L435.395 91.7148H436.531L435.617 94.9023ZM444.688 85.2109C444.688 85.6445 444.803 86.0586 445.033 86.4531C445.264 86.8438 445.582 87.1875 445.988 87.4844C446.398 87.7812 446.863 88.0039 447.383 88.1523L446.949 88.8672C446.332 88.6875 445.787 88.4062 445.314 88.0234C444.846 87.6406 444.492 87.1914 444.254 86.6758C444.023 87.25 443.674 87.752 443.205 88.1816C442.74 88.6113 442.195 88.9297 441.57 89.1367L441.113 88.4102C441.625 88.2461 442.082 88.0039 442.484 87.6836C442.891 87.3594 443.207 86.9844 443.434 86.5586C443.66 86.1289 443.773 85.6797 443.773 85.2109V85.0703H441.371V84.332H443.773V83.0312H444.699V84.332H447.078V85.0703H444.688V85.2109ZM442.508 91.5273C442.508 91.1328 442.646 90.7949 442.924 90.5137C443.205 90.2324 443.609 90.0176 444.137 89.8691C444.664 89.7207 445.293 89.6484 446.023 89.6523C446.746 89.6484 447.371 89.7207 447.898 89.8691C448.426 90.0176 448.83 90.2324 449.111 90.5137C449.393 90.7949 449.535 91.1328 449.539 91.5273C449.535 91.9297 449.393 92.2715 449.111 92.5527C448.83 92.8379 448.426 93.0547 447.898 93.2031C447.375 93.3516 446.75 93.4258 446.023 93.4258C445.293 93.4258 444.664 93.3516 444.137 93.2031C443.609 93.0547 443.205 92.8379 442.924 92.5527C442.646 92.2715 442.508 91.9297 442.508 91.5273ZM443.434 91.5273C443.434 91.7734 443.535 91.9844 443.738 92.1602C443.945 92.3359 444.242 92.4688 444.629 92.5586C445.02 92.6523 445.484 92.6992 446.023 92.6992C446.559 92.6992 447.021 92.6523 447.412 92.5586C447.803 92.4648 448.102 92.3301 448.309 92.1543C448.52 91.9785 448.625 91.7695 448.625 91.5273C448.625 91.293 448.52 91.0898 448.309 90.918C448.102 90.7422 447.803 90.6094 447.412 90.5195C447.021 90.4258 446.559 90.3789 446.023 90.3789C445.488 90.3789 445.025 90.4258 444.635 90.5195C444.248 90.6094 443.951 90.7422 443.744 90.918C443.537 91.0898 443.434 91.293 443.434 91.5273ZM448.59 83.043H449.504V89.4297H448.59V83.043ZM454.824 85.5039C454.824 85.9453 454.934 86.3691 455.152 86.7754C455.371 87.1777 455.676 87.5332 456.066 87.8418C456.457 88.1465 456.906 88.3789 457.414 88.5391L456.945 89.2891C456.355 89.0898 455.838 88.7949 455.393 88.4043C454.951 88.0098 454.617 87.5508 454.391 87.0273C454.164 87.5938 453.822 88.0898 453.365 88.5156C452.908 88.9375 452.375 89.2578 451.766 89.4766L451.285 88.7266C451.801 88.5625 452.258 88.3203 452.656 88C453.055 87.6758 453.365 87.2988 453.588 86.8691C453.811 86.4355 453.922 85.9805 453.922 85.5039V85.2109H451.566V84.4609H453.922V83.1016H454.848V84.4609H457.18V85.2109H454.824V85.5039ZM452.902 90.0742H453.805V92.4531H459.898V93.2266H452.902V90.0742ZM458.504 83.0312H459.418V86.2773H460.988V87.0508H459.418V90.7422H458.504V83.0312ZM466.848 85.5859H461.621V84.8359H463.789V83.3477H464.703V84.8359H466.848V85.5859ZM461.996 88.6562C461.996 88.2031 462.092 87.7969 462.283 87.4375C462.479 87.0781 462.746 86.7969 463.086 86.5938C463.426 86.3906 463.809 86.2891 464.234 86.2891C464.668 86.2891 465.055 86.3906 465.395 86.5938C465.738 86.7969 466.006 87.0781 466.197 87.4375C466.393 87.793 466.492 88.1992 466.496 88.6562C466.492 89.1172 466.393 89.5293 466.197 89.8926C466.006 90.252 465.738 90.5352 465.395 90.7422C465.055 90.9453 464.668 91.0469 464.234 91.0469C463.809 91.0469 463.424 90.9453 463.08 90.7422C462.74 90.5352 462.475 90.252 462.283 89.8926C462.092 89.5293 461.996 89.1172 461.996 88.6562ZM462.816 88.6562C462.816 88.9609 462.877 89.2344 462.998 89.4766C463.119 89.7148 463.287 89.9023 463.502 90.0391C463.717 90.1719 463.961 90.2383 464.234 90.2383C464.508 90.2383 464.754 90.1719 464.973 90.0391C465.191 89.9023 465.363 89.7148 465.488 89.4766C465.613 89.2344 465.676 88.9609 465.676 88.6562C465.676 88.3555 465.613 88.0859 465.488 87.8477C465.363 87.6055 465.191 87.416 464.973 87.2793C464.754 87.1387 464.508 87.0664 464.234 87.0625C463.961 87.0664 463.717 87.1387 463.502 87.2793C463.287 87.416 463.119 87.6055 462.998 87.8477C462.877 88.0859 462.816 88.3555 462.816 88.6562ZM467.387 83.2891H468.254V87.4258H469.637V83.0312H470.516V93.4492H469.637V88.1875H468.254V92.9336H467.387V83.2891ZM471.594 93.34H483.594V81.34H471.594V93.34Z" fill="white"/>
<path d="M419.571 109.985C420.462 109.985 420.908 111.062 420.278 111.692L414.207 117.763C413.817 118.154 413.183 118.154 412.793 117.763L406.722 111.692C406.092 111.062 406.538 109.985 407.429 109.985H419.571Z" fill="#0C111D"/>
</g>
<defs>
<filter id="filter0_d_223_5898" x="552" y="141.5" width="20" height="20" filterUnits="userSpaceOnUse" color-interpolation-filters="sRGB">
<feFlood flood-opacity="0" result="BackgroundImageFix"/>
<feColorMatrix in="SourceAlpha" type="matrix" values="0 0 0 0 0 0 0 0 0 0 0 0 0 0 0 0 0 0 127 0" result="hardAlpha"/>
<feOffset/>
<feGaussianBlur stdDeviation="2"/>
<feComposite in2="hardAlpha" operator="out"/>
<feColorMatrix type="matrix" values="0 0 0 0 0 0 0 0 0 0 0 0 0 0 0 0 0 0 0.1 0"/>
<feBlend mode="normal" in2="BackgroundImageFix" result="effect1_dropShadow_223_5898"/>
<feBlend mode="normal" in="SourceGraphic" in2="effect1_dropShadow_223_5898" result="shape"/>
</filter>
<filter id="filter1_dd_223_5898" x="301" y="22.5" width="225" height="120" filterUnits="userSpaceOnUse" color-interpolation-filters="sRGB">
<feFlood flood-opacity="0" result="BackgroundImageFix"/>
<feColorMatrix in="SourceAlpha" type="matrix" values="0 0 0 0 0 0 0 0 0 0 0 0 0 0 0 0 0 0 127 0" result="hardAlpha"/>
<feMorphology radius="2" operator="erode" in="SourceAlpha" result="effect1_dropShadow_223_5898"/>
<feOffset dy="4"/>
<feGaussianBlur stdDeviation="3"/>
<feComposite in2="hardAlpha" operator="out"/>
<feColorMatrix type="matrix" values="0 0 0 0 0.0627451 0 0 0 0 0.0941176 0 0 0 0 0.156863 0 0 0 0.03 0"/>
<feBlend mode="normal" in2="BackgroundImageFix" result="effect1_dropShadow_223_5898"/>
<feColorMatrix in="SourceAlpha" type="matrix" values="0 0 0 0 0 0 0 0 0 0 0 0 0 0 0 0 0 0 127 0" result="hardAlpha"/>
<feMorphology radius="4" operator="erode" in="SourceAlpha" result="effect2_dropShadow_223_5898"/>
<feOffset dy="12"/>
<feGaussianBlur stdDeviation="8"/>
<feComposite in2="hardAlpha" operator="out"/>
<feColorMatrix type="matrix" values="0 0 0 0 0.0627451 0 0 0 0 0.0941176 0 0 0 0 0.156863 0 0 0 0.08 0"/>
<feBlend mode="normal" in2="effect1_dropShadow_223_5898" result="effect2_dropShadow_223_5898"/>
<feBlend mode="normal" in="SourceGraphic" in2="effect2_dropShadow_223_5898" result="shape"/>
</filter>
<linearGradient id="paint0_linear_223_5898" x1="214" y1="92" x2="269.745" y2="292.5" gradientUnits="userSpaceOnUse">
<stop/>
<stop offset="1" stop-opacity="0"/>
</linearGradient>
</defs>
</svg>
