<svg width="337" height="99" viewBox="0 0 337 99" fill="none" xmlns="http://www.w3.org/2000/svg">
<g clip-path="url(#clip0_223_6269)">
<rect width="337" height="99" rx="4" fill="white"/>
<g clip-path="url(#clip1_223_6269)">
<rect width="337" height="33" fill="white" fill-opacity="0.01"/>
<rect width="61" height="33" fill="black" fill-opacity="0.03"/>
<path d="M15.42 13.75V20H14.58V13.75H12.25V13.02H17.75V13.75H15.42ZM21.3161 13.7C21.0828 13.7 20.9194 13.6533 20.8261 13.56C20.7328 13.46 20.6861 13.3367 20.6861 13.19V13.03C20.6861 12.8833 20.7328 12.7633 20.8261 12.67C20.9194 12.57 21.0828 12.52 21.3161 12.52C21.5494 12.52 21.7128 12.57 21.8061 12.67C21.8994 12.7633 21.9461 12.8833 21.9461 13.03V13.19C21.9461 13.3367 21.8994 13.46 21.8061 13.56C21.7128 13.6533 21.5494 13.7 21.3161 13.7ZM19.0561 19.32H20.9161V15.52H19.0561V14.84H21.7161V19.32H23.4561V20H19.0561V19.32ZM27.1722 20.12C26.7989 20.12 26.4655 20.0567 26.1722 19.93C25.8855 19.7967 25.6422 19.6133 25.4422 19.38C25.2422 19.1467 25.0889 18.8633 24.9822 18.53C24.8822 18.1967 24.8322 17.8267 24.8322 17.42C24.8322 17.0133 24.8855 16.6433 24.9922 16.31C25.0989 15.9767 25.2522 15.6933 25.4522 15.46C25.6522 15.22 25.8955 15.0367 26.1822 14.91C26.4689 14.7833 26.7955 14.72 27.1622 14.72C27.6622 14.72 28.0689 14.83 28.3822 15.05C28.6955 15.27 28.9255 15.5567 29.0722 15.91L28.4322 16.25C28.3389 15.9833 28.1822 15.7767 27.9622 15.63C27.7489 15.4833 27.4822 15.41 27.1622 15.41C26.9289 15.41 26.7189 15.45 26.5322 15.53C26.3522 15.6033 26.1989 15.71 26.0722 15.85C25.9455 15.99 25.8489 16.1567 25.7822 16.35C25.7222 16.5433 25.6922 16.7533 25.6922 16.98V17.86C25.6922 18.0867 25.7222 18.2967 25.7822 18.49C25.8489 18.6833 25.9455 18.85 26.0722 18.99C26.1989 19.13 26.3555 19.24 26.5422 19.32C26.7289 19.3933 26.9422 19.43 27.1822 19.43C27.5289 19.43 27.8155 19.35 28.0422 19.19C28.2689 19.03 28.4489 18.81 28.5822 18.53L29.1522 18.92C28.9989 19.2667 28.7589 19.5533 28.4322 19.78C28.1122 20.0067 27.6922 20.12 27.1722 20.12ZM31.0383 12.6H31.8383V17.27H31.8783L32.7783 16.42L34.4983 14.84H35.4783L33.3383 16.86L35.7283 20H34.7383L32.7283 17.32L31.8383 18.13V20H31.0383V12.6ZM39.0744 20.12C38.701 20.12 38.3644 20.0567 38.0644 19.93C37.771 19.8033 37.5177 19.6233 37.3044 19.39C37.0977 19.15 36.9377 18.8667 36.8244 18.54C36.711 18.2067 36.6544 17.8367 36.6544 17.43C36.6544 17.0167 36.711 16.6433 36.8244 16.31C36.9444 15.9767 37.1077 15.6933 37.3144 15.46C37.521 15.22 37.7677 15.0367 38.0544 14.91C38.3477 14.7833 38.671 14.72 39.0244 14.72C39.371 14.72 39.6844 14.7833 39.9644 14.91C40.251 15.0367 40.4944 15.2133 40.6944 15.44C40.8944 15.66 41.0477 15.9233 41.1544 16.23C41.261 16.5367 41.3144 16.8733 41.3144 17.24V17.62H37.4944V17.86C37.4944 18.0867 37.531 18.2967 37.6044 18.49C37.6777 18.6833 37.781 18.85 37.9144 18.99C38.0544 19.13 38.221 19.24 38.4144 19.32C38.6144 19.3933 38.8344 19.43 39.0744 19.43C39.421 19.43 39.721 19.35 39.9744 19.19C40.2277 19.03 40.421 18.81 40.5544 18.53L41.1444 18.93C40.991 19.2767 40.7344 19.5633 40.3744 19.79C40.021 20.01 39.5877 20.12 39.0744 20.12ZM39.0244 15.38C38.8044 15.38 38.601 15.42 38.4144 15.5C38.2277 15.58 38.0644 15.69 37.9244 15.83C37.791 15.97 37.6844 16.1367 37.6044 16.33C37.531 16.5167 37.4944 16.7233 37.4944 16.95V17.02H40.4544V16.91C40.4544 16.6833 40.4177 16.4767 40.3444 16.29C40.2777 16.1033 40.181 15.9433 40.0544 15.81C39.9344 15.67 39.7844 15.5633 39.6044 15.49C39.431 15.4167 39.2377 15.38 39.0244 15.38ZM42.7505 19.32H44.2605V15.52H42.7505V14.84H45.0605V16.14H45.1105C45.2171 15.7333 45.4171 15.4167 45.7105 15.19C46.0105 14.9567 46.3905 14.84 46.8505 14.84H47.5705V15.64H46.6005C46.1405 15.64 45.7671 15.7733 45.4805 16.04C45.2005 16.3067 45.0605 16.6567 45.0605 17.09V19.32H47.0605V20H42.7505V19.32Z" fill="#595959"/>
<mask id="path-4-inside-1_223_6269" fill="white">
<path d="M61 0H112V33H61V0Z"/>
</mask>
<path d="M61 0H112V33H61V0Z" fill="black" fill-opacity="0.03"/>
<path d="M61 0V-1H60V0H61ZM61 0V1H112V0V-1H61V0ZM61 33H62V0H61H60V33H61Z" fill="#EAECF0" mask="url(#path-4-inside-1_223_6269)"/>
<path d="M76.42 13.75V20H75.58V13.75H73.25V13.02H78.75V13.75H76.42ZM83.6661 14.84H84.4661L81.9061 21.13C81.8461 21.2767 81.7794 21.4033 81.7061 21.51C81.6328 21.6233 81.5461 21.7133 81.4461 21.78C81.3461 21.8533 81.2261 21.9067 81.0861 21.94C80.9461 21.98 80.7794 22 80.5861 22H79.8261V21.32H81.0261L81.6061 19.9L79.5261 14.84H80.3461L81.2161 17L81.9861 18.96H82.0261L82.7961 17L83.6661 14.84ZM85.9422 14.84H86.7422V15.68H86.7822C87.1155 15.04 87.6455 14.72 88.3722 14.72C89.0055 14.72 89.4989 14.9567 89.8522 15.43C90.2122 15.9033 90.3922 16.5667 90.3922 17.42C90.3922 18.2733 90.2122 18.9367 89.8522 19.41C89.4989 19.8833 89.0055 20.12 88.3722 20.12C87.6455 20.12 87.1155 19.8 86.7822 19.16H86.7422V22H85.9422V14.84ZM88.0622 19.41C88.5289 19.41 88.8889 19.27 89.1422 18.99C89.4022 18.7033 89.5322 18.3267 89.5322 17.86V16.98C89.5322 16.5133 89.4022 16.14 89.1422 15.86C88.8889 15.5733 88.5289 15.43 88.0622 15.43C87.8822 15.43 87.7122 15.4533 87.5522 15.5C87.3922 15.5467 87.2522 15.6167 87.1322 15.71C87.0122 15.7967 86.9155 15.9067 86.8422 16.04C86.7755 16.1667 86.7422 16.3167 86.7422 16.49V18.35C86.7422 18.5233 86.7755 18.6767 86.8422 18.81C86.9155 18.9367 87.0122 19.0467 87.1322 19.14C87.2522 19.2267 87.3922 19.2933 87.5522 19.34C87.7122 19.3867 87.8822 19.41 88.0622 19.41ZM94.0783 20.12C93.7049 20.12 93.3683 20.0567 93.0683 19.93C92.7749 19.8033 92.5216 19.6233 92.3083 19.39C92.1016 19.15 91.9416 18.8667 91.8283 18.54C91.7149 18.2067 91.6583 17.8367 91.6583 17.43C91.6583 17.0167 91.7149 16.6433 91.8283 16.31C91.9483 15.9767 92.1116 15.6933 92.3183 15.46C92.5249 15.22 92.7716 15.0367 93.0583 14.91C93.3516 14.7833 93.6749 14.72 94.0283 14.72C94.3749 14.72 94.6883 14.7833 94.9683 14.91C95.2549 15.0367 95.4983 15.2133 95.6983 15.44C95.8983 15.66 96.0516 15.9233 96.1583 16.23C96.2649 16.5367 96.3183 16.8733 96.3183 17.24V17.62H92.4983V17.86C92.4983 18.0867 92.5349 18.2967 92.6083 18.49C92.6816 18.6833 92.7849 18.85 92.9183 18.99C93.0583 19.13 93.2249 19.24 93.4183 19.32C93.6183 19.3933 93.8383 19.43 94.0783 19.43C94.4249 19.43 94.7249 19.35 94.9783 19.19C95.2316 19.03 95.4249 18.81 95.5583 18.53L96.1483 18.93C95.9949 19.2767 95.7383 19.5633 95.3783 19.79C95.0249 20.01 94.5916 20.12 94.0783 20.12ZM94.0283 15.38C93.8083 15.38 93.6049 15.42 93.4183 15.5C93.2316 15.58 93.0683 15.69 92.9283 15.83C92.7949 15.97 92.6883 16.1367 92.6083 16.33C92.5349 16.5167 92.4983 16.7233 92.4983 16.95V17.02H95.4583V16.91C95.4583 16.6833 95.4216 16.4767 95.3483 16.29C95.2816 16.1033 95.1849 15.9433 95.0583 15.81C94.9383 15.67 94.7883 15.5633 94.6083 15.49C94.4349 15.4167 94.2416 15.38 94.0283 15.38Z" fill="#595959"/>
<mask id="path-7-inside-2_223_6269" fill="white">
<path d="M112 0H199V33H112V0Z"/>
</mask>
<path d="M112 0H199V33H112V0Z" fill="black" fill-opacity="0.03"/>
<path d="M112 0V-1H111V0H112ZM112 0V1H199V0V-1H112V0ZM112 33H113V0H112H111V33H112Z" fill="#EAECF0" mask="url(#path-7-inside-2_223_6269)"/>
<path d="M124.95 13.02H126.9C127.753 13.02 128.39 13.3133 128.81 13.9C129.23 14.4867 129.44 15.3567 129.44 16.51C129.44 17.6633 129.23 18.5333 128.81 19.12C128.39 19.7067 127.753 20 126.9 20H124.95V13.02ZM126.86 19.27C127.42 19.27 127.84 19.0767 128.12 18.69C128.407 18.3033 128.55 17.7567 128.55 17.05V15.97C128.55 15.2633 128.407 14.7167 128.12 14.33C127.84 13.9433 127.42 13.75 126.86 13.75H125.79V19.27H126.86ZM134.946 20C134.633 20 134.409 19.92 134.276 19.76C134.143 19.6 134.059 19.4 134.026 19.16H133.976C133.863 19.46 133.679 19.6967 133.426 19.87C133.179 20.0367 132.846 20.12 132.426 20.12C131.886 20.12 131.456 19.98 131.136 19.7C130.816 19.42 130.656 19.0367 130.656 18.55C130.656 18.07 130.829 17.7 131.176 17.44C131.529 17.18 132.096 17.05 132.876 17.05H133.976V16.54C133.976 16.16 133.869 15.8767 133.656 15.69C133.443 15.4967 133.139 15.4 132.746 15.4C132.399 15.4 132.116 15.47 131.896 15.61C131.676 15.7433 131.499 15.9267 131.366 16.16L130.826 15.76C130.893 15.6267 130.983 15.4967 131.096 15.37C131.209 15.2433 131.349 15.1333 131.516 15.04C131.683 14.94 131.873 14.8633 132.086 14.81C132.299 14.75 132.536 14.72 132.796 14.72C133.403 14.72 133.883 14.8733 134.236 15.18C134.596 15.4867 134.776 15.9133 134.776 16.46V19.3H135.496V20H134.946ZM132.566 19.45C132.773 19.45 132.959 19.4267 133.126 19.38C133.299 19.3267 133.449 19.26 133.576 19.18C133.703 19.0933 133.799 18.9933 133.866 18.88C133.939 18.76 133.976 18.6333 133.976 18.5V17.65H132.876C132.396 17.65 132.046 17.7167 131.826 17.85C131.606 17.9833 131.496 18.1767 131.496 18.43V18.64C131.496 18.9067 131.589 19.11 131.776 19.25C131.969 19.3833 132.233 19.45 132.566 19.45ZM139.242 20C138.849 20 138.559 19.89 138.372 19.67C138.192 19.45 138.102 19.1667 138.102 18.82V15.52H136.382V14.84H137.662C137.836 14.84 137.956 14.8067 138.022 14.74C138.096 14.6667 138.132 14.5433 138.132 14.37V13.02H138.902V14.84H141.252V15.52H138.902V19.32H141.252V20H139.242ZM145.078 20.12C144.705 20.12 144.368 20.0567 144.068 19.93C143.775 19.8033 143.522 19.6233 143.308 19.39C143.102 19.15 142.942 18.8667 142.828 18.54C142.715 18.2067 142.658 17.8367 142.658 17.43C142.658 17.0167 142.715 16.6433 142.828 16.31C142.948 15.9767 143.112 15.6933 143.318 15.46C143.525 15.22 143.772 15.0367 144.058 14.91C144.352 14.7833 144.675 14.72 145.028 14.72C145.375 14.72 145.688 14.7833 145.968 14.91C146.255 15.0367 146.498 15.2133 146.698 15.44C146.898 15.66 147.052 15.9233 147.158 16.23C147.265 16.5367 147.318 16.8733 147.318 17.24V17.62H143.498V17.86C143.498 18.0867 143.535 18.2967 143.608 18.49C143.682 18.6833 143.785 18.85 143.918 18.99C144.058 19.13 144.225 19.24 144.418 19.32C144.618 19.3933 144.838 19.43 145.078 19.43C145.425 19.43 145.725 19.35 145.978 19.19C146.232 19.03 146.425 18.81 146.558 18.53L147.148 18.93C146.995 19.2767 146.738 19.5633 146.378 19.79C146.025 20.01 145.592 20.12 145.078 20.12ZM145.028 15.38C144.808 15.38 144.605 15.42 144.418 15.5C144.232 15.58 144.068 15.69 143.928 15.83C143.795 15.97 143.688 16.1367 143.608 16.33C143.535 16.5167 143.498 16.7233 143.498 16.95V17.02H146.458V16.91C146.458 16.6833 146.422 16.4767 146.348 16.29C146.282 16.1033 146.185 15.9433 146.058 15.81C145.938 15.67 145.788 15.5633 145.608 15.49C145.435 15.4167 145.242 15.38 145.028 15.38Z" fill="#595959"/>
<mask id="path-10-inside-3_223_6269" fill="white">
<path d="M199 0H282V33H199V0Z"/>
</mask>
<path d="M199 0H282V33H199V0Z" fill="black" fill-opacity="0.03"/>
<path d="M199 0V-1H198V0H199ZM199 0V1H282V0V-1H199V0ZM199 33H200V0H199H198V33H199Z" fill="#EAECF0" mask="url(#path-10-inside-3_223_6269)"/>
<path d="M211.9 20V13.02H214.44C215.087 13.02 215.58 13.1967 215.92 13.55C216.26 13.9033 216.43 14.3967 216.43 15.03C216.43 15.6633 216.26 16.1567 215.92 16.51C215.58 16.8633 215.087 17.04 214.44 17.04H212.74V20H211.9ZM212.74 16.31H214.42C214.773 16.31 215.047 16.2233 215.24 16.05C215.44 15.87 215.54 15.6167 215.54 15.29V14.77C215.54 14.4433 215.44 14.1933 215.24 14.02C215.047 13.84 214.773 13.75 214.42 13.75H212.74V16.31ZM217.766 19.32H219.276V15.52H217.766V14.84H220.076V16.14H220.126C220.233 15.7333 220.433 15.4167 220.726 15.19C221.026 14.9567 221.406 14.84 221.866 14.84H222.586V15.64H221.616C221.156 15.64 220.783 15.7733 220.496 16.04C220.216 16.3067 220.076 16.6567 220.076 17.09V19.32H222.076V20H217.766V19.32ZM226.312 13.7C226.079 13.7 225.916 13.6533 225.822 13.56C225.729 13.46 225.682 13.3367 225.682 13.19V13.03C225.682 12.8833 225.729 12.7633 225.822 12.67C225.916 12.57 226.079 12.52 226.312 12.52C226.546 12.52 226.709 12.57 226.802 12.67C226.896 12.7633 226.942 12.8833 226.942 13.03V13.19C226.942 13.3367 226.896 13.46 226.802 13.56C226.709 13.6533 226.546 13.7 226.312 13.7ZM224.052 19.32H225.912V15.52H224.052V14.84H226.712V19.32H228.452V20H224.052V19.32ZM232.168 20.12C231.795 20.12 231.462 20.0567 231.168 19.93C230.882 19.7967 230.638 19.6133 230.438 19.38C230.238 19.1467 230.085 18.8633 229.978 18.53C229.878 18.1967 229.828 17.8267 229.828 17.42C229.828 17.0133 229.882 16.6433 229.988 16.31C230.095 15.9767 230.248 15.6933 230.448 15.46C230.648 15.22 230.892 15.0367 231.178 14.91C231.465 14.7833 231.792 14.72 232.158 14.72C232.658 14.72 233.065 14.83 233.378 15.05C233.692 15.27 233.922 15.5567 234.068 15.91L233.428 16.25C233.335 15.9833 233.178 15.7767 232.958 15.63C232.745 15.4833 232.478 15.41 232.158 15.41C231.925 15.41 231.715 15.45 231.528 15.53C231.348 15.6033 231.195 15.71 231.068 15.85C230.942 15.99 230.845 16.1567 230.778 16.35C230.718 16.5433 230.688 16.7533 230.688 16.98V17.86C230.688 18.0867 230.718 18.2967 230.778 18.49C230.845 18.6833 230.942 18.85 231.068 18.99C231.195 19.13 231.352 19.24 231.538 19.32C231.725 19.3933 231.938 19.43 232.178 19.43C232.525 19.43 232.812 19.35 233.038 19.19C233.265 19.03 233.445 18.81 233.578 18.53L234.148 18.92C233.995 19.2667 233.755 19.5533 233.428 19.78C233.108 20.0067 232.688 20.12 232.168 20.12ZM238.074 20.12C237.701 20.12 237.364 20.0567 237.064 19.93C236.771 19.8033 236.518 19.6233 236.304 19.39C236.098 19.15 235.938 18.8667 235.824 18.54C235.711 18.2067 235.654 17.8367 235.654 17.43C235.654 17.0167 235.711 16.6433 235.824 16.31C235.944 15.9767 236.108 15.6933 236.314 15.46C236.521 15.22 236.768 15.0367 237.054 14.91C237.348 14.7833 237.671 14.72 238.024 14.72C238.371 14.72 238.684 14.7833 238.964 14.91C239.251 15.0367 239.494 15.2133 239.694 15.44C239.894 15.66 240.048 15.9233 240.154 16.23C240.261 16.5367 240.314 16.8733 240.314 17.24V17.62H236.494V17.86C236.494 18.0867 236.531 18.2967 236.604 18.49C236.678 18.6833 236.781 18.85 236.914 18.99C237.054 19.13 237.221 19.24 237.414 19.32C237.614 19.3933 237.834 19.43 238.074 19.43C238.421 19.43 238.721 19.35 238.974 19.19C239.228 19.03 239.421 18.81 239.554 18.53L240.144 18.93C239.991 19.2767 239.734 19.5633 239.374 19.79C239.021 20.01 238.588 20.12 238.074 20.12ZM238.024 15.38C237.804 15.38 237.601 15.42 237.414 15.5C237.228 15.58 237.064 15.69 236.924 15.83C236.791 15.97 236.684 16.1367 236.604 16.33C236.531 16.5167 236.494 16.7233 236.494 16.95V17.02H239.454V16.91C239.454 16.6833 239.418 16.4767 239.344 16.29C239.278 16.1033 239.181 15.9433 239.054 15.81C238.934 15.67 238.784 15.5633 238.604 15.49C238.431 15.4167 238.238 15.38 238.024 15.38Z" fill="#595959"/>
<mask id="path-13-inside-4_223_6269" fill="white">
<path d="M282 0H337V33H282V0Z"/>
</mask>
<path d="M282 0H337V33H282V0Z" fill="black" fill-opacity="0.03"/>
<path d="M282 0V-1H281V0H282ZM282 0V1H337V0V-1H282V0ZM282 33H283V0H282H281V33H282Z" fill="#EAECF0" mask="url(#path-13-inside-4_223_6269)"/>
<path d="M296.98 20.12C296.353 20.12 295.84 20.0067 295.44 19.78C295.04 19.5467 294.71 19.25 294.45 18.89L295.06 18.39C295.333 18.73 295.62 18.9833 295.92 19.15C296.227 19.3167 296.59 19.4 297.01 19.4C297.517 19.4 297.903 19.2833 298.17 19.05C298.437 18.8167 298.57 18.49 298.57 18.07C298.57 17.73 298.473 17.4667 298.28 17.28C298.087 17.0867 297.75 16.95 297.27 16.87L296.49 16.74C296.15 16.68 295.863 16.59 295.63 16.47C295.403 16.35 295.22 16.2067 295.08 16.04C294.94 15.8667 294.84 15.68 294.78 15.48C294.72 15.2733 294.69 15.06 294.69 14.84C294.69 14.2 294.9 13.7167 295.32 13.39C295.74 13.0633 296.307 12.9 297.02 12.9C297.58 12.9 298.05 12.9933 298.43 13.18C298.817 13.3667 299.127 13.63 299.36 13.97L298.77 14.48C298.577 14.2267 298.343 14.02 298.07 13.86C297.797 13.7 297.443 13.62 297.01 13.62C296.537 13.62 296.173 13.72 295.92 13.92C295.667 14.12 295.54 14.42 295.54 14.82C295.54 15.1333 295.633 15.39 295.82 15.59C296.013 15.7833 296.357 15.9233 296.85 16.01L297.6 16.14C297.94 16.2 298.227 16.29 298.46 16.41C298.693 16.53 298.88 16.6733 299.02 16.84C299.167 17.0067 299.27 17.1933 299.33 17.4C299.39 17.6067 299.42 17.8233 299.42 18.05C299.42 18.6967 299.207 19.2033 298.78 19.57C298.36 19.9367 297.76 20.12 296.98 20.12ZM300.976 12.6H301.776V15.68H301.816C301.869 15.5533 301.936 15.4333 302.016 15.32C302.096 15.2 302.193 15.0967 302.306 15.01C302.426 14.9233 302.566 14.8533 302.726 14.8C302.886 14.7467 303.073 14.72 303.286 14.72C303.826 14.72 304.259 14.8933 304.586 15.24C304.913 15.58 305.076 16.0633 305.076 16.69V20H304.276V16.83C304.276 16.3567 304.173 16.0067 303.966 15.78C303.759 15.5467 303.456 15.43 303.056 15.43C302.896 15.43 302.739 15.45 302.586 15.49C302.433 15.53 302.296 15.59 302.176 15.67C302.056 15.75 301.959 15.8533 301.886 15.98C301.813 16.1067 301.776 16.2533 301.776 16.42V20H300.976V12.6ZM310.942 20C310.629 20 310.406 19.92 310.272 19.76C310.139 19.6 310.056 19.4 310.022 19.16H309.972C309.859 19.46 309.676 19.6967 309.422 19.87C309.176 20.0367 308.842 20.12 308.422 20.12C307.882 20.12 307.452 19.98 307.132 19.7C306.812 19.42 306.652 19.0367 306.652 18.55C306.652 18.07 306.826 17.7 307.172 17.44C307.526 17.18 308.092 17.05 308.872 17.05H309.972V16.54C309.972 16.16 309.866 15.8767 309.652 15.69C309.439 15.4967 309.136 15.4 308.742 15.4C308.396 15.4 308.112 15.47 307.892 15.61C307.672 15.7433 307.496 15.9267 307.362 16.16L306.822 15.76C306.889 15.6267 306.979 15.4967 307.092 15.37C307.206 15.2433 307.346 15.1333 307.512 15.04C307.679 14.94 307.869 14.8633 308.082 14.81C308.296 14.75 308.532 14.72 308.792 14.72C309.399 14.72 309.879 14.8733 310.232 15.18C310.592 15.4867 310.772 15.9133 310.772 16.46V19.3H311.492V20H310.942ZM308.562 19.45C308.769 19.45 308.956 19.4267 309.122 19.38C309.296 19.3267 309.446 19.26 309.572 19.18C309.699 19.0933 309.796 18.9933 309.862 18.88C309.936 18.76 309.972 18.6333 309.972 18.5V17.65H308.872C308.392 17.65 308.042 17.7167 307.822 17.85C307.602 17.9833 307.492 18.1767 307.492 18.43V18.64C307.492 18.9067 307.586 19.11 307.772 19.25C307.966 19.3833 308.229 19.45 308.562 19.45ZM312.758 19.32H314.268V15.52H312.758V14.84H315.068V16.14H315.118C315.225 15.7333 315.425 15.4167 315.718 15.19C316.018 14.9567 316.398 14.84 316.858 14.84H317.578V15.64H316.608C316.148 15.64 315.775 15.7733 315.488 16.04C315.208 16.3067 315.068 16.6567 315.068 17.09V19.32H317.068V20H312.758V19.32ZM321.074 20.12C320.701 20.12 320.364 20.0567 320.064 19.93C319.771 19.8033 319.518 19.6233 319.304 19.39C319.098 19.15 318.938 18.8667 318.824 18.54C318.711 18.2067 318.654 17.8367 318.654 17.43C318.654 17.0167 318.711 16.6433 318.824 16.31C318.944 15.9767 319.108 15.6933 319.314 15.46C319.521 15.22 319.768 15.0367 320.054 14.91C320.348 14.7833 320.671 14.72 321.024 14.72C321.371 14.72 321.684 14.7833 321.964 14.91C322.251 15.0367 322.494 15.2133 322.694 15.44C322.894 15.66 323.048 15.9233 323.154 16.23C323.261 16.5367 323.314 16.8733 323.314 17.24V17.62H319.494V17.86C319.494 18.0867 319.531 18.2967 319.604 18.49C319.678 18.6833 319.781 18.85 319.914 18.99C320.054 19.13 320.221 19.24 320.414 19.32C320.614 19.3933 320.834 19.43 321.074 19.43C321.421 19.43 321.721 19.35 321.974 19.19C322.228 19.03 322.421 18.81 322.554 18.53L323.144 18.93C322.991 19.2767 322.734 19.5633 322.374 19.79C322.021 20.01 321.588 20.12 321.074 20.12ZM321.024 15.38C320.804 15.38 320.601 15.42 320.414 15.5C320.228 15.58 320.064 15.69 319.924 15.83C319.791 15.97 319.684 16.1367 319.604 16.33C319.531 16.5167 319.494 16.7233 319.494 16.95V17.02H322.454V16.91C322.454 16.6833 322.418 16.4767 322.344 16.29C322.278 16.1033 322.181 15.9433 322.054 15.81C321.934 15.67 321.784 15.5633 321.604 15.49C321.431 15.4167 321.238 15.38 321.024 15.38Z" fill="#595959"/>
</g>
<g clip-path="url(#clip2_223_6269)">
<rect width="337" height="33" transform="translate(0 33)" fill="white" fill-opacity="0.01"/>
<mask id="path-16-inside-5_223_6269" fill="white">
<path d="M0 33H61V66H0V33Z"/>
</mask>
<path d="M0 33H61V66H0V33Z" fill="white" fill-opacity="0.01"/>
<path d="M0 33V32H-1V33H0ZM0 33V34H61V33V32H0V33ZM0 66H1V33H0H-1V66H0Z" fill="#EAECF0" mask="url(#path-16-inside-5_223_6269)"/>
<path d="M17.3271 53H15.96L13.9824 48.415V53H12.6006V45.8906H13.9824L15.9453 50.4561L15.9502 45.8906H17.3271V53ZM20.7646 50.0801L20.0127 50.9053V53H18.6357V45.8906H20.0127V49.1475L20.6572 48.2783L22.3857 45.8906H24.0654L21.6729 49.0352L24.1533 53H22.5225L20.7646 50.0801ZM29.0264 49.8848H26.1064V51.8916H29.5195V53H24.7295V45.8906H29.5049V47.0088H26.1064V48.8008H29.0264V49.8848Z" fill="black"/>
<mask id="path-19-inside-6_223_6269" fill="white">
<path d="M61 33H112V66H61V33Z"/>
</mask>
<path d="M61 33H112V66H61V33Z" fill="white" fill-opacity="0.01"/>
<path d="M61 33V32H60V33H61ZM61 33V34H112V33V32H61V33ZM61 66H62V33H61H60V66H61Z" fill="#EAECF0" mask="url(#path-19-inside-6_223_6269)"/>
<path d="M73.6299 53V45.8906H76.0176C76.4049 45.8906 76.7565 45.9297 77.0723 46.0078C77.3913 46.0859 77.6631 46.2048 77.8877 46.3643C78.1123 46.5238 78.2848 46.7256 78.4053 46.9697C78.529 47.2139 78.5908 47.502 78.5908 47.834C78.5876 48.0488 78.5485 48.2523 78.4736 48.4443C78.402 48.6331 78.2946 48.7992 78.1514 48.9424C78.0732 49.0205 77.9837 49.0921 77.8828 49.1572C77.7852 49.2223 77.6761 49.2777 77.5557 49.3232V49.3281C77.79 49.3932 77.9756 49.4762 78.1123 49.5771C78.2523 49.6781 78.3695 49.7952 78.4639 49.9287C78.5615 50.0719 78.6331 50.2282 78.6787 50.3975C78.7275 50.5635 78.752 50.736 78.752 50.915C78.752 51.2568 78.6934 51.5579 78.5762 51.8184C78.459 52.0788 78.2913 52.2969 78.0732 52.4727C77.8551 52.6484 77.5898 52.7803 77.2773 52.8682C76.9648 52.9561 76.6133 53 76.2227 53H73.6299ZM75.0068 49.8652V51.8916H76.2275C76.4066 51.8916 76.5661 51.8688 76.7061 51.8232C76.8493 51.7777 76.9681 51.7158 77.0625 51.6377C77.1667 51.5498 77.2448 51.444 77.2969 51.3203C77.3522 51.1966 77.3799 51.0583 77.3799 50.9053C77.3799 50.7458 77.3587 50.6025 77.3164 50.4756C77.2773 50.3486 77.2139 50.2412 77.126 50.1533C77.0381 50.0622 76.9242 49.9922 76.7842 49.9434C76.6442 49.8945 76.4782 49.8685 76.2861 49.8652H75.0068ZM75.0068 48.874H76.0273C76.2357 48.8708 76.4196 48.8464 76.5791 48.8008C76.7386 48.752 76.8672 48.6803 76.9648 48.5859C77.0462 48.5111 77.1081 48.4199 77.1504 48.3125C77.196 48.2051 77.2188 48.083 77.2188 47.9463C77.2188 47.8031 77.1992 47.6777 77.1602 47.5703C77.1243 47.4629 77.069 47.3734 76.9941 47.3018C76.8965 47.2008 76.7646 47.1276 76.5986 47.082C76.4359 47.0365 76.2438 47.012 76.0225 47.0088H75.0068V48.874ZM83.1416 53L83.0635 52.2578C82.8844 52.5215 82.668 52.7282 82.4141 52.8779C82.1634 53.0277 81.8883 53.1025 81.5889 53.1025C81.3154 53.1025 81.0648 53.0602 80.8369 52.9756C80.609 52.891 80.4137 52.7559 80.251 52.5703C80.0882 52.388 79.9613 52.1553 79.8701 51.8721C79.7822 51.5856 79.7383 51.2422 79.7383 50.8418V47.7168H81.0957V50.8516C81.0957 51.0664 81.1104 51.2471 81.1396 51.3936C81.1722 51.54 81.2227 51.6572 81.291 51.7451C81.3594 51.8363 81.4489 51.9014 81.5596 51.9404C81.6702 51.9795 81.8053 51.999 81.9648 51.999C82.1081 51.999 82.2367 51.9844 82.3506 51.9551C82.4678 51.9258 82.5703 51.8835 82.6582 51.8281C82.7331 51.7793 82.7998 51.7207 82.8584 51.6523C82.917 51.584 82.9674 51.5075 83.0098 51.4229V47.7168H84.3721V53H83.1416ZM86.5352 55.1338C86.4049 55.1338 86.291 55.1257 86.1934 55.1094C86.099 55.0931 85.9932 55.0687 85.876 55.0361L86.042 54.001C86.0973 54.001 86.1673 54.0026 86.252 54.0059C86.3398 54.0124 86.4098 54.0156 86.4619 54.0156C86.5693 54.0156 86.6637 53.9814 86.7451 53.9131C86.8298 53.848 86.9014 53.7764 86.96 53.6982C87.0186 53.6201 87.0609 53.5615 87.0869 53.5225C87.1162 53.4834 87.1504 53.4281 87.1895 53.3564L87.502 52.7754L85.2656 47.7168H86.75L87.9609 50.8125L88.1074 51.3496L88.3076 50.8223L89.5137 47.7168H91.0127L88.332 53.791C88.2734 53.9245 88.1969 54.0693 88.1025 54.2256C88.0114 54.3818 87.8958 54.5267 87.7559 54.6602C87.6159 54.7936 87.445 54.9059 87.2432 54.9971C87.0446 55.0882 86.8086 55.1338 86.5352 55.1338Z" fill="black"/>
<mask id="path-22-inside-7_223_6269" fill="white">
<path d="M112 33H199V66H112V33Z"/>
</mask>
<path d="M112 33H199V66H112V33Z" fill="white" fill-opacity="0.01"/>
<path d="M112 33V32H111V33H112ZM112 33V34H199V33V32H112V33ZM112 66H113V33H112H111V66H112Z" fill="#EAECF0" mask="url(#path-22-inside-7_223_6269)"/>
<path d="M129.337 53H124.488V52.0723L126.788 49.6016C126.967 49.4062 127.118 49.2288 127.242 49.0693C127.366 48.9098 127.467 48.7633 127.545 48.6299C127.62 48.4997 127.674 48.3776 127.706 48.2637C127.742 48.1497 127.76 48.0391 127.76 47.9316C127.76 47.7721 127.737 47.6305 127.691 47.5068C127.646 47.3831 127.582 47.2773 127.501 47.1895C127.416 47.1048 127.315 47.0397 127.198 46.9941C127.084 46.9486 126.957 46.9258 126.817 46.9258C126.635 46.9258 126.474 46.9518 126.334 47.0039C126.197 47.0527 126.083 47.126 125.992 47.2236C125.898 47.3245 125.826 47.4499 125.777 47.5996C125.729 47.7493 125.704 47.9202 125.704 48.1123H124.342C124.342 47.7965 124.402 47.4987 124.522 47.2188C124.643 46.9355 124.814 46.6882 125.035 46.4766C125.253 46.265 125.517 46.099 125.826 45.9785C126.139 45.8548 126.484 45.793 126.861 45.793C127.223 45.793 127.542 45.8434 127.818 45.9443C128.098 46.0452 128.333 46.1868 128.521 46.3691C128.707 46.5514 128.849 46.7712 128.946 47.0283C129.044 47.2822 129.093 47.5638 129.093 47.873C129.093 48.1074 129.055 48.332 128.98 48.5469C128.909 48.7585 128.806 48.9684 128.673 49.1768C128.536 49.3851 128.373 49.5983 128.185 49.8164C127.996 50.0312 127.786 50.2575 127.555 50.4951L126.217 51.9111H129.337V53ZM135.323 50.2949C135.323 50.7539 135.27 51.1592 135.162 51.5107C135.058 51.859 134.907 52.1504 134.708 52.3848C134.509 52.6224 134.267 52.8014 133.98 52.9219C133.694 53.0423 133.372 53.1025 133.014 53.1025C132.659 53.1025 132.338 53.0423 132.052 52.9219C131.765 52.8014 131.523 52.6224 131.324 52.3848C131.122 52.1504 130.966 51.859 130.855 51.5107C130.748 51.1592 130.694 50.7539 130.694 50.2949V48.5957C130.694 48.1367 130.748 47.7331 130.855 47.3848C130.963 47.0332 131.118 46.7386 131.319 46.501C131.518 46.2666 131.759 46.0892 132.042 45.9688C132.328 45.8483 132.649 45.7881 133.004 45.7881C133.362 45.7881 133.684 45.8483 133.971 45.9688C134.257 46.0892 134.501 46.2666 134.703 46.501C134.902 46.7386 135.055 47.0332 135.162 47.3848C135.27 47.7331 135.323 48.1367 135.323 48.5957V50.2949ZM132.062 49.709L133.956 48.2979C133.95 48.0309 133.92 47.8031 133.868 47.6143C133.819 47.4222 133.746 47.2692 133.648 47.1553C133.574 47.0641 133.481 46.9974 133.37 46.9551C133.263 46.9095 133.141 46.8867 133.004 46.8867C132.851 46.8867 132.716 46.916 132.599 46.9746C132.485 47.0299 132.389 47.1146 132.311 47.2285C132.226 47.349 132.162 47.5052 132.12 47.6973C132.081 47.8893 132.062 48.1172 132.062 48.3809V49.167C132.062 49.3232 132.062 49.4274 132.062 49.4795C132.062 49.5316 132.062 49.6081 132.062 49.709ZM133.956 50.5V49.6748C133.956 49.5674 133.956 49.4893 133.956 49.4404C133.956 49.3883 133.956 49.3151 133.956 49.2207L132.062 50.627C132.068 50.8418 132.089 51.0322 132.125 51.1982C132.164 51.3643 132.218 51.5026 132.286 51.6133C132.364 51.7467 132.464 51.846 132.584 51.9111C132.704 51.9762 132.848 52.0088 133.014 52.0088C133.167 52.0088 133.302 51.9811 133.419 51.9258C133.536 51.8672 133.634 51.7793 133.712 51.6621C133.793 51.5384 133.854 51.3805 133.893 51.1885C133.935 50.9932 133.956 50.7637 133.956 50.5ZM141.349 53H136.5V52.0723L138.8 49.6016C138.979 49.4062 139.13 49.2288 139.254 49.0693C139.378 48.9098 139.479 48.7633 139.557 48.6299C139.632 48.4997 139.685 48.3776 139.718 48.2637C139.754 48.1497 139.771 48.0391 139.771 47.9316C139.771 47.7721 139.749 47.6305 139.703 47.5068C139.658 47.3831 139.594 47.2773 139.513 47.1895C139.428 47.1048 139.327 47.0397 139.21 46.9941C139.096 46.9486 138.969 46.9258 138.829 46.9258C138.647 46.9258 138.486 46.9518 138.346 47.0039C138.209 47.0527 138.095 47.126 138.004 47.2236C137.91 47.3245 137.838 47.4499 137.789 47.5996C137.74 47.7493 137.716 47.9202 137.716 48.1123H136.354C136.354 47.7965 136.414 47.4987 136.534 47.2188C136.655 46.9355 136.826 46.6882 137.047 46.4766C137.265 46.265 137.529 46.099 137.838 45.9785C138.15 45.8548 138.495 45.793 138.873 45.793C139.234 45.793 139.553 45.8434 139.83 45.9443C140.11 46.0452 140.344 46.1868 140.533 46.3691C140.719 46.5514 140.86 46.7712 140.958 47.0283C141.056 47.2822 141.104 47.5638 141.104 47.873C141.104 48.1074 141.067 48.332 140.992 48.5469C140.921 48.7585 140.818 48.9684 140.685 49.1768C140.548 49.3851 140.385 49.5983 140.196 49.8164C140.007 50.0312 139.798 50.2575 139.566 50.4951L138.229 51.9111H141.349V53ZM142.774 49.499L143.18 45.8906H147.125V47.043H144.298L144.127 48.6055C144.228 48.5469 144.371 48.4867 144.557 48.4248C144.742 48.363 144.955 48.332 145.196 48.332C145.538 48.332 145.842 48.3874 146.109 48.498C146.38 48.6055 146.607 48.7617 146.793 48.9668C146.975 49.1719 147.115 49.4225 147.213 49.7188C147.311 50.015 147.359 50.3503 147.359 50.7246C147.359 51.0436 147.312 51.3464 147.218 51.6328C147.123 51.9193 146.979 52.1715 146.783 52.3896C146.588 52.6077 146.342 52.7803 146.046 52.9072C145.75 53.0342 145.4 53.0977 144.996 53.0977C144.69 53.0977 144.394 53.0521 144.107 52.9609C143.824 52.8698 143.572 52.7363 143.351 52.5605C143.129 52.3848 142.949 52.1699 142.809 51.916C142.672 51.6589 142.599 51.3659 142.589 51.0371H143.927C143.959 51.3464 144.07 51.5856 144.259 51.7549C144.451 51.9242 144.695 52.0088 144.991 52.0088C145.174 52.0088 145.328 51.9746 145.455 51.9062C145.585 51.8379 145.691 51.7435 145.772 51.623C145.851 51.5026 145.908 51.3594 145.943 51.1934C145.982 51.0273 146.002 50.8483 146.002 50.6562C146.002 50.4674 145.978 50.2949 145.929 50.1387C145.883 49.9792 145.812 49.8424 145.714 49.7285C145.616 49.6146 145.494 49.5267 145.348 49.4648C145.201 49.403 145.029 49.3721 144.83 49.3721C144.697 49.3721 144.581 49.3835 144.483 49.4062C144.386 49.429 144.299 49.4583 144.225 49.4941C144.15 49.5299 144.083 49.5723 144.024 49.6211C143.966 49.6667 143.91 49.7155 143.858 49.7676L142.774 49.499ZM153.468 50.4121H149.4V49.3135H153.468V50.4121ZM159.347 50.2949C159.347 50.7539 159.293 51.1592 159.186 51.5107C159.081 51.859 158.93 52.1504 158.731 52.3848C158.533 52.6224 158.29 52.8014 158.004 52.9219C157.717 53.0423 157.395 53.1025 157.037 53.1025C156.682 53.1025 156.362 53.0423 156.075 52.9219C155.789 52.8014 155.546 52.6224 155.348 52.3848C155.146 52.1504 154.99 51.859 154.879 51.5107C154.771 51.1592 154.718 50.7539 154.718 50.2949V48.5957C154.718 48.1367 154.771 47.7331 154.879 47.3848C154.986 47.0332 155.141 46.7386 155.343 46.501C155.541 46.2666 155.782 46.0892 156.065 45.9688C156.352 45.8483 156.673 45.7881 157.027 45.7881C157.385 45.7881 157.708 45.8483 157.994 45.9688C158.281 46.0892 158.525 46.2666 158.727 46.501C158.925 46.7386 159.078 47.0332 159.186 47.3848C159.293 47.7331 159.347 48.1367 159.347 48.5957V50.2949ZM156.085 49.709L157.979 48.2979C157.973 48.0309 157.944 47.8031 157.892 47.6143C157.843 47.4222 157.77 47.2692 157.672 47.1553C157.597 47.0641 157.504 46.9974 157.394 46.9551C157.286 46.9095 157.164 46.8867 157.027 46.8867C156.874 46.8867 156.739 46.916 156.622 46.9746C156.508 47.0299 156.412 47.1146 156.334 47.2285C156.249 47.349 156.186 47.5052 156.144 47.6973C156.104 47.8893 156.085 48.1172 156.085 48.3809V49.167C156.085 49.3232 156.085 49.4274 156.085 49.4795C156.085 49.5316 156.085 49.6081 156.085 49.709ZM157.979 50.5V49.6748C157.979 49.5674 157.979 49.4893 157.979 49.4404C157.979 49.3883 157.979 49.3151 157.979 49.2207L156.085 50.627C156.091 50.8418 156.113 51.0322 156.148 51.1982C156.188 51.3643 156.241 51.5026 156.31 51.6133C156.388 51.7467 156.487 51.846 156.607 51.9111C156.728 51.9762 156.871 52.0088 157.037 52.0088C157.19 52.0088 157.325 51.9811 157.442 51.9258C157.56 51.8672 157.657 51.7793 157.735 51.6621C157.817 51.5384 157.877 51.3805 157.916 51.1885C157.958 50.9932 157.979 50.7637 157.979 50.5ZM164.327 45.832V46.96H164.249C163.891 46.96 163.574 47.0072 163.297 47.1016C163.023 47.196 162.791 47.3294 162.599 47.502C162.403 47.6745 162.249 47.8812 162.135 48.1221C162.024 48.363 161.954 48.6315 161.925 48.9277C162 48.8464 162.086 48.7666 162.184 48.6885C162.281 48.6071 162.392 48.5339 162.516 48.4688C162.636 48.4069 162.768 48.3564 162.911 48.3174C163.054 48.2783 163.209 48.2588 163.375 48.2588C163.714 48.2588 164.008 48.3239 164.259 48.4541C164.513 48.5811 164.724 48.7536 164.894 48.9717C165.063 49.193 165.188 49.4502 165.27 49.7432C165.354 50.0329 165.396 50.3389 165.396 50.6611C165.396 51.0062 165.341 51.3268 165.23 51.623C165.12 51.9193 164.962 52.1764 164.757 52.3945C164.552 52.6126 164.303 52.7852 164.01 52.9121C163.717 53.0358 163.388 53.0977 163.023 53.0977C162.643 53.0977 162.299 53.0277 161.993 52.8877C161.687 52.7445 161.428 52.5475 161.217 52.2969C161.002 52.0462 160.836 51.75 160.719 51.4082C160.605 51.0632 160.548 50.6872 160.548 50.2803V49.7578C160.548 49.1947 160.624 48.6738 160.777 48.1953C160.93 47.7135 161.158 47.2969 161.461 46.9453C161.764 46.597 162.14 46.3252 162.589 46.1299C163.038 45.9313 163.557 45.832 164.146 45.832H164.327ZM162.979 49.3477C162.849 49.3477 162.727 49.3672 162.613 49.4062C162.499 49.4421 162.395 49.4941 162.301 49.5625C162.219 49.6243 162.145 49.696 162.076 49.7773C162.011 49.8587 161.956 49.9482 161.91 50.0459V50.4463C161.91 50.7067 161.936 50.9346 161.988 51.1299C162.044 51.3252 162.12 51.4863 162.218 51.6133C162.315 51.7435 162.431 51.8411 162.564 51.9062C162.698 51.9714 162.843 52.0039 162.999 52.0039C163.159 52.0039 163.303 51.9714 163.434 51.9062C163.564 51.8379 163.674 51.7451 163.766 51.6279C163.857 51.5107 163.927 51.3724 163.976 51.2129C164.024 51.0501 164.049 50.8727 164.049 50.6807C164.049 50.4886 164.024 50.3112 163.976 50.1484C163.927 49.9857 163.857 49.8441 163.766 49.7236C163.674 49.6064 163.562 49.5153 163.429 49.4502C163.299 49.3818 163.149 49.3477 162.979 49.3477ZM171.485 50.4121H167.418V49.3135H171.485V50.4121ZM176.061 53H174.688V47.5459L172.892 48.1904V47.0088L175.987 45.8906H176.061V53ZM183.37 50.2949C183.37 50.7539 183.316 51.1592 183.209 51.5107C183.105 51.859 182.953 52.1504 182.755 52.3848C182.556 52.6224 182.314 52.8014 182.027 52.9219C181.741 53.0423 181.419 53.1025 181.061 53.1025C180.706 53.1025 180.385 53.0423 180.099 52.9219C179.812 52.8014 179.57 52.6224 179.371 52.3848C179.169 52.1504 179.013 51.859 178.902 51.5107C178.795 51.1592 178.741 50.7539 178.741 50.2949V48.5957C178.741 48.1367 178.795 47.7331 178.902 47.3848C179.01 47.0332 179.164 46.7386 179.366 46.501C179.565 46.2666 179.806 46.0892 180.089 45.9688C180.375 45.8483 180.696 45.7881 181.051 45.7881C181.409 45.7881 181.731 45.8483 182.018 45.9688C182.304 46.0892 182.548 46.2666 182.75 46.501C182.949 46.7386 183.102 47.0332 183.209 47.3848C183.316 47.7331 183.37 48.1367 183.37 48.5957V50.2949ZM180.108 49.709L182.003 48.2979C181.996 48.0309 181.967 47.8031 181.915 47.6143C181.866 47.4222 181.793 47.2692 181.695 47.1553C181.62 47.0641 181.528 46.9974 181.417 46.9551C181.31 46.9095 181.188 46.8867 181.051 46.8867C180.898 46.8867 180.763 46.916 180.646 46.9746C180.532 47.0299 180.436 47.1146 180.357 47.2285C180.273 47.349 180.209 47.5052 180.167 47.6973C180.128 47.8893 180.108 48.1172 180.108 48.3809V49.167C180.108 49.3232 180.108 49.4274 180.108 49.4795C180.108 49.5316 180.108 49.6081 180.108 49.709ZM182.003 50.5V49.6748C182.003 49.5674 182.003 49.4893 182.003 49.4404C182.003 49.3883 182.003 49.3151 182.003 49.2207L180.108 50.627C180.115 50.8418 180.136 51.0322 180.172 51.1982C180.211 51.3643 180.265 51.5026 180.333 51.6133C180.411 51.7467 180.51 51.846 180.631 51.9111C180.751 51.9762 180.895 52.0088 181.061 52.0088C181.214 52.0088 181.349 51.9811 181.466 51.9258C181.583 51.8672 181.681 51.7793 181.759 51.6621C181.84 51.5384 181.9 51.3805 181.939 51.1885C181.982 50.9932 182.003 50.7637 182.003 50.5Z" fill="black"/>
<mask id="path-25-inside-8_223_6269" fill="white">
<path d="M199 33H282V66H199V33Z"/>
</mask>
<path d="M199 33H282V66H199V33Z" fill="white" fill-opacity="0.01"/>
<path d="M199 33V32H198V33H199ZM199 33V34H282V33V32H199V33ZM199 66H200V33H199H198V66H199Z" fill="#EAECF0" mask="url(#path-25-inside-8_223_6269)"/>
<path d="M215.214 51.1348C215.214 50.998 215.193 50.8776 215.15 50.7734C215.111 50.666 215.048 50.5684 214.96 50.4805C214.869 50.3926 214.75 50.3128 214.604 50.2412C214.46 50.1663 214.286 50.0931 214.081 50.0215C213.752 49.9043 213.453 49.7806 213.183 49.6504C212.912 49.5202 212.683 49.3688 212.494 49.1963C212.302 49.0238 212.154 48.8236 212.05 48.5957C211.946 48.3646 211.894 48.0911 211.894 47.7754C211.894 47.4987 211.941 47.2464 212.035 47.0186C212.13 46.7874 212.263 46.5872 212.436 46.418C212.608 46.2487 212.816 46.112 213.061 46.0078C213.305 45.9036 213.576 45.8369 213.876 45.8076V44.7578H214.657V45.8174C214.95 45.8564 215.214 45.9362 215.448 46.0566C215.683 46.1771 215.883 46.3333 216.049 46.5254C216.212 46.7207 216.337 46.9502 216.425 47.2139C216.516 47.4743 216.562 47.7673 216.562 48.0928H215.204C215.204 47.8844 215.178 47.7021 215.126 47.5459C215.074 47.3896 215.001 47.2611 214.906 47.1602C214.822 47.0723 214.719 47.0055 214.599 46.96C214.481 46.9144 214.351 46.8916 214.208 46.8916C214.042 46.8916 213.897 46.9144 213.773 46.96C213.653 47.0023 213.554 47.0625 213.476 47.1406C213.397 47.222 213.339 47.3164 213.3 47.4238C213.264 47.5312 213.246 47.6484 213.246 47.7754C213.246 47.9023 213.264 48.0163 213.3 48.1172C213.339 48.2148 213.404 48.306 213.495 48.3906C213.583 48.4753 213.7 48.5566 213.847 48.6348C213.993 48.7096 214.175 48.7861 214.394 48.8643C214.722 48.988 215.02 49.1165 215.287 49.25C215.554 49.3802 215.784 49.5316 215.976 49.7041C216.164 49.8799 216.309 50.0833 216.41 50.3145C216.514 50.5423 216.566 50.8125 216.566 51.125C216.566 51.4115 216.519 51.6702 216.425 51.9014C216.33 52.1292 216.195 52.3262 216.02 52.4922C215.844 52.6582 215.632 52.7917 215.385 52.8926C215.137 52.9902 214.861 53.0537 214.555 53.083V54.04H213.778V53.083C213.502 53.057 213.233 52.9967 212.973 52.9023C212.712 52.8047 212.483 52.6647 212.284 52.4824C212.082 52.3001 211.921 52.0706 211.801 51.7939C211.68 51.514 211.62 51.1787 211.62 50.7881H212.982C212.982 51.0225 213.017 51.2194 213.085 51.3789C213.153 51.5352 213.243 51.6589 213.354 51.75C213.461 51.8444 213.585 51.9111 213.725 51.9502C213.865 51.9893 214.008 52.0088 214.154 52.0088C214.34 52.0088 214.501 51.986 214.638 51.9404C214.774 51.8916 214.887 51.8249 214.975 51.7402C215.053 51.6654 215.111 51.5758 215.15 51.4717C215.193 51.3675 215.214 51.2552 215.214 51.1348ZM221.02 53H219.647V47.5459L217.851 48.1904V47.0088L220.946 45.8906H221.02V53ZM228.344 46.6475L225.575 53H224.145L226.918 46.999H223.349V45.8906H228.344V46.6475ZM234.335 50.2949C234.335 50.7539 234.281 51.1592 234.174 51.5107C234.07 51.859 233.918 52.1504 233.72 52.3848C233.521 52.6224 233.279 52.8014 232.992 52.9219C232.706 53.0423 232.383 53.1025 232.025 53.1025C231.671 53.1025 231.35 53.0423 231.063 52.9219C230.777 52.8014 230.535 52.6224 230.336 52.3848C230.134 52.1504 229.978 51.859 229.867 51.5107C229.76 51.1592 229.706 50.7539 229.706 50.2949V48.5957C229.706 48.1367 229.76 47.7331 229.867 47.3848C229.975 47.0332 230.129 46.7386 230.331 46.501C230.53 46.2666 230.771 46.0892 231.054 45.9688C231.34 45.8483 231.661 45.7881 232.016 45.7881C232.374 45.7881 232.696 45.8483 232.982 45.9688C233.269 46.0892 233.513 46.2666 233.715 46.501C233.913 46.7386 234.066 47.0332 234.174 47.3848C234.281 47.7331 234.335 48.1367 234.335 48.5957V50.2949ZM231.073 49.709L232.968 48.2979C232.961 48.0309 232.932 47.8031 232.88 47.6143C232.831 47.4222 232.758 47.2692 232.66 47.1553C232.585 47.0641 232.493 46.9974 232.382 46.9551C232.274 46.9095 232.152 46.8867 232.016 46.8867C231.863 46.8867 231.728 46.916 231.61 46.9746C231.496 47.0299 231.4 47.1146 231.322 47.2285C231.238 47.349 231.174 47.5052 231.132 47.6973C231.093 47.8893 231.073 48.1172 231.073 48.3809V49.167C231.073 49.3232 231.073 49.4274 231.073 49.4795C231.073 49.5316 231.073 49.6081 231.073 49.709ZM232.968 50.5V49.6748C232.968 49.5674 232.968 49.4893 232.968 49.4404C232.968 49.3883 232.968 49.3151 232.968 49.2207L231.073 50.627C231.08 50.8418 231.101 51.0322 231.137 51.1982C231.176 51.3643 231.229 51.5026 231.298 51.6133C231.376 51.7467 231.475 51.846 231.596 51.9111C231.716 51.9762 231.859 52.0088 232.025 52.0088C232.178 52.0088 232.313 51.9811 232.431 51.9258C232.548 51.8672 232.646 51.7793 232.724 51.6621C232.805 51.5384 232.865 51.3805 232.904 51.1885C232.947 50.9932 232.968 50.7637 232.968 50.5ZM237.084 52.2139C237.084 51.9632 237.167 51.7516 237.333 51.5791C237.499 51.4033 237.73 51.3154 238.026 51.3154C238.319 51.3154 238.549 51.4017 238.715 51.5742C238.884 51.7467 238.969 51.96 238.969 52.2139C238.969 52.4678 238.882 52.6794 238.71 52.8486C238.541 53.0146 238.313 53.0977 238.026 53.0977C237.737 53.0977 237.507 53.013 237.338 52.8438C237.169 52.6745 237.084 52.4645 237.084 52.2139ZM241.786 49.499L242.191 45.8906H246.137V47.043H243.31L243.139 48.6055C243.24 48.5469 243.383 48.4867 243.568 48.4248C243.754 48.363 243.967 48.332 244.208 48.332C244.55 48.332 244.854 48.3874 245.121 48.498C245.391 48.6055 245.619 48.7617 245.805 48.9668C245.987 49.1719 246.127 49.4225 246.225 49.7188C246.322 50.015 246.371 50.3503 246.371 50.7246C246.371 51.0436 246.324 51.3464 246.229 51.6328C246.135 51.9193 245.99 52.1715 245.795 52.3896C245.6 52.6077 245.354 52.7803 245.058 52.9072C244.761 53.0342 244.411 53.0977 244.008 53.0977C243.702 53.0977 243.406 53.0521 243.119 52.9609C242.836 52.8698 242.584 52.7363 242.362 52.5605C242.141 52.3848 241.96 52.1699 241.82 51.916C241.684 51.6589 241.61 51.3659 241.601 51.0371H242.938C242.971 51.3464 243.082 51.5856 243.271 51.7549C243.463 51.9242 243.707 52.0088 244.003 52.0088C244.185 52.0088 244.34 51.9746 244.467 51.9062C244.597 51.8379 244.703 51.7435 244.784 51.623C244.862 51.5026 244.919 51.3594 244.955 51.1934C244.994 51.0273 245.014 50.8483 245.014 50.6562C245.014 50.4674 244.989 50.2949 244.94 50.1387C244.895 49.9792 244.823 49.8424 244.726 49.7285C244.628 49.6146 244.506 49.5267 244.359 49.4648C244.213 49.403 244.04 49.3721 243.842 49.3721C243.708 49.3721 243.593 49.3835 243.495 49.4062C243.397 49.429 243.311 49.4583 243.236 49.4941C243.161 49.5299 243.095 49.5723 243.036 49.6211C242.978 49.6667 242.922 49.7155 242.87 49.7676L241.786 49.499ZM252.353 50.2949C252.353 50.7539 252.299 51.1592 252.191 51.5107C252.087 51.859 251.936 52.1504 251.737 52.3848C251.539 52.6224 251.296 52.8014 251.01 52.9219C250.723 53.0423 250.401 53.1025 250.043 53.1025C249.688 53.1025 249.368 53.0423 249.081 52.9219C248.795 52.8014 248.552 52.6224 248.354 52.3848C248.152 52.1504 247.995 51.859 247.885 51.5107C247.777 51.1592 247.724 50.7539 247.724 50.2949V48.5957C247.724 48.1367 247.777 47.7331 247.885 47.3848C247.992 47.0332 248.147 46.7386 248.349 46.501C248.547 46.2666 248.788 46.0892 249.071 45.9688C249.358 45.8483 249.678 45.7881 250.033 45.7881C250.391 45.7881 250.714 45.8483 251 45.9688C251.286 46.0892 251.531 46.2666 251.732 46.501C251.931 46.7386 252.084 47.0332 252.191 47.3848C252.299 47.7331 252.353 48.1367 252.353 48.5957V50.2949ZM249.091 49.709L250.985 48.2979C250.979 48.0309 250.95 47.8031 250.897 47.6143C250.849 47.4222 250.775 47.2692 250.678 47.1553C250.603 47.0641 250.51 46.9974 250.399 46.9551C250.292 46.9095 250.17 46.8867 250.033 46.8867C249.88 46.8867 249.745 46.916 249.628 46.9746C249.514 47.0299 249.418 47.1146 249.34 47.2285C249.255 47.349 249.192 47.5052 249.149 47.6973C249.11 47.8893 249.091 48.1172 249.091 48.3809V49.167C249.091 49.3232 249.091 49.4274 249.091 49.4795C249.091 49.5316 249.091 49.6081 249.091 49.709ZM250.985 50.5V49.6748C250.985 49.5674 250.985 49.4893 250.985 49.4404C250.985 49.3883 250.985 49.3151 250.985 49.2207L249.091 50.627C249.097 50.8418 249.118 51.0322 249.154 51.1982C249.193 51.3643 249.247 51.5026 249.315 51.6133C249.394 51.7467 249.493 51.846 249.613 51.9111C249.734 51.9762 249.877 52.0088 250.043 52.0088C250.196 52.0088 250.331 51.9811 250.448 51.9258C250.565 51.8672 250.663 51.7793 250.741 51.6621C250.823 51.5384 250.883 51.3805 250.922 51.1885C250.964 50.9932 250.985 50.7637 250.985 50.5Z" fill="black"/>
<mask id="path-28-inside-9_223_6269" fill="white">
<path d="M282 33H337V66H282V33Z"/>
</mask>
<path d="M282 33H337V66H282V33Z" fill="white" fill-opacity="0.01"/>
<path d="M282 33V32H281V33H282ZM282 33V34H337V33V32H282V33ZM282 66H283V33H282H281V66H282Z" fill="#EAECF0" mask="url(#path-28-inside-9_223_6269)"/>
<path d="M294.757 49.499L295.162 45.8906H299.107V47.043H296.28L296.109 48.6055C296.21 48.5469 296.354 48.4867 296.539 48.4248C296.725 48.363 296.938 48.332 297.179 48.332C297.521 48.332 297.825 48.3874 298.092 48.498C298.362 48.6055 298.59 48.7617 298.775 48.9668C298.958 49.1719 299.098 49.4225 299.195 49.7188C299.293 50.015 299.342 50.3503 299.342 50.7246C299.342 51.0436 299.295 51.3464 299.2 51.6328C299.106 51.9193 298.961 52.1715 298.766 52.3896C298.57 52.6077 298.325 52.7803 298.028 52.9072C297.732 53.0342 297.382 53.0977 296.979 53.0977C296.673 53.0977 296.376 53.0521 296.09 52.9609C295.807 52.8698 295.554 52.7363 295.333 52.5605C295.112 52.3848 294.931 52.1699 294.791 51.916C294.654 51.6589 294.581 51.3659 294.571 51.0371H295.909C295.942 51.3464 296.052 51.5856 296.241 51.7549C296.433 51.9242 296.677 52.0088 296.974 52.0088C297.156 52.0088 297.311 51.9746 297.438 51.9062C297.568 51.8379 297.674 51.7435 297.755 51.623C297.833 51.5026 297.89 51.3594 297.926 51.1934C297.965 51.0273 297.984 50.8483 297.984 50.6562C297.984 50.4674 297.96 50.2949 297.911 50.1387C297.866 49.9792 297.794 49.8424 297.696 49.7285C297.599 49.6146 297.477 49.5267 297.33 49.4648C297.184 49.403 297.011 49.3721 296.812 49.3721C296.679 49.3721 296.563 49.3835 296.466 49.4062C296.368 49.429 296.282 49.4583 296.207 49.4941C296.132 49.5299 296.065 49.5723 296.007 49.6211C295.948 49.6667 295.893 49.7155 295.841 49.7676L294.757 49.499Z" fill="black"/>
</g>
<g clip-path="url(#clip3_223_6269)">
<rect width="337" height="33" transform="translate(0 66)" fill="white" fill-opacity="0.01"/>
<mask id="path-31-inside-10_223_6269" fill="white">
<path d="M0 66H61V99H0V66Z"/>
</mask>
<path d="M0 66H61V99H0V66Z" fill="white" fill-opacity="0.01"/>
<path d="M0 66V65H-1V66H0ZM0 66V67H61V66V65H0V66ZM0 99H1V66H0H-1V99H0Z" fill="#EAECF0" mask="url(#path-31-inside-10_223_6269)"/>
<path d="M17.3271 86H15.96L13.9824 81.415V86H12.6006V78.8906H13.9824L15.9453 83.4561L15.9502 78.8906H17.3271V86ZM20.7646 83.0801L20.0127 83.9053V86H18.6357V78.8906H20.0127V82.1475L20.6572 81.2783L22.3857 78.8906H24.0654L21.6729 82.0352L24.1533 86H22.5225L20.7646 83.0801ZM29.0264 82.8848H26.1064V84.8916H29.5195V86H24.7295V78.8906H29.5049V80.0088H26.1064V81.8008H29.0264V82.8848Z" fill="black"/>
<mask id="path-34-inside-11_223_6269" fill="white">
<path d="M61 66H112V99H61V66Z"/>
</mask>
<path d="M61 66H112V99H61V66Z" fill="white" fill-opacity="0.01"/>
<path d="M61 66V65H60V66H61ZM61 66V67H112V66V65H61V66ZM61 99H62V66H61H60V99H61Z" fill="#EAECF0" mask="url(#path-34-inside-11_223_6269)"/>
<path d="M77.3311 84.1445C77.3311 84.0176 77.3083 83.8988 77.2627 83.7881C77.2204 83.6774 77.1471 83.5732 77.043 83.4756C76.9355 83.3812 76.7956 83.2949 76.623 83.2168C76.4538 83.1354 76.2422 83.0605 75.9883 82.9922C75.5944 82.8848 75.2477 82.7546 74.9482 82.6016C74.652 82.4486 74.4095 82.2809 74.2207 82.0986C74.0319 81.9163 73.8887 81.7145 73.791 81.4932C73.6966 81.2718 73.6494 81.0309 73.6494 80.7705C73.6494 80.471 73.7129 80.1992 73.8398 79.9551C73.9668 79.7109 74.1426 79.5026 74.3672 79.3301C74.5918 79.1576 74.8571 79.0257 75.1631 78.9346C75.4691 78.8402 75.8011 78.793 76.1592 78.793C76.5303 78.793 76.8688 78.8467 77.1748 78.9541C77.484 79.0615 77.7493 79.2113 77.9707 79.4033C78.1921 79.5986 78.3646 79.8298 78.4883 80.0967C78.612 80.3636 78.6738 80.6566 78.6738 80.9756H77.3359C77.3294 80.8161 77.3001 80.6696 77.248 80.5361C77.1992 80.4027 77.126 80.2871 77.0283 80.1895C76.9274 80.0951 76.8021 80.0218 76.6523 79.9697C76.5059 79.9144 76.3333 79.8867 76.1348 79.8867C75.9525 79.8867 75.7897 79.9095 75.6465 79.9551C75.5065 79.9974 75.3877 80.0576 75.29 80.1357C75.1924 80.2171 75.1175 80.3132 75.0654 80.4238C75.0166 80.5312 74.9922 80.6484 74.9922 80.7754C74.9922 80.9089 75.0247 81.0293 75.0898 81.1367C75.1582 81.2441 75.2559 81.3402 75.3828 81.4248C75.5098 81.5127 75.6628 81.5924 75.8418 81.6641C76.0241 81.7357 76.2292 81.8024 76.457 81.8643C76.7012 81.9326 76.9339 82.0156 77.1553 82.1133C77.3766 82.2109 77.5801 82.3232 77.7656 82.4502C78.0456 82.6585 78.2686 82.901 78.4346 83.1777C78.6006 83.4544 78.6836 83.7734 78.6836 84.1348C78.6836 84.4473 78.6201 84.7256 78.4932 84.9697C78.3695 85.2106 78.1969 85.4141 77.9756 85.5801C77.7542 85.7493 77.4906 85.8779 77.1846 85.9658C76.8786 86.0505 76.5449 86.0928 76.1836 86.0928C75.8288 86.0928 75.4772 86.0407 75.1289 85.9365C74.7839 85.8291 74.4827 85.6729 74.2256 85.4678C73.9814 85.266 73.7878 85.0283 73.6445 84.7549C73.5046 84.4814 73.4346 84.1608 73.4346 83.793H74.7822C74.7887 84.0078 74.8262 84.1917 74.8945 84.3447C74.9629 84.4977 75.0589 84.623 75.1826 84.7207C75.3031 84.8184 75.4479 84.89 75.6172 84.9355C75.7897 84.9811 75.9785 85.0039 76.1836 85.0039C76.3659 85.0039 76.527 84.9827 76.667 84.9404C76.8102 84.8981 76.9307 84.8395 77.0283 84.7646C77.126 84.6898 77.2008 84.6003 77.2529 84.4961C77.305 84.3887 77.3311 84.2715 77.3311 84.1445ZM82.2578 86.0977C81.8509 86.0977 81.4814 86.0309 81.1494 85.8975C80.8174 85.764 80.5326 85.5817 80.2949 85.3506C80.0573 85.1227 79.8734 84.8542 79.7432 84.5449C79.6162 84.2324 79.5527 83.8988 79.5527 83.5439V83.3486C79.5527 82.945 79.6162 82.5771 79.7432 82.2451C79.8701 81.9098 80.0475 81.6217 80.2754 81.3809C80.5033 81.14 80.7734 80.9528 81.0859 80.8193C81.3984 80.6859 81.7386 80.6191 82.1064 80.6191C82.4873 80.6191 82.8258 80.6826 83.1221 80.8096C83.4215 80.9333 83.6755 81.109 83.8838 81.3369C84.0889 81.5648 84.2451 81.8398 84.3525 82.1621C84.46 82.4811 84.5137 82.8343 84.5137 83.2217V83.7979H80.9297V83.8125C80.9753 84.0241 81.0339 84.195 81.1055 84.3252C81.1771 84.4521 81.2731 84.5677 81.3936 84.6719C81.5173 84.7793 81.6589 84.8623 81.8184 84.9209C81.9779 84.9795 82.152 85.0088 82.3408 85.0088C82.6077 85.0088 82.8665 84.9583 83.1172 84.8574C83.3678 84.7565 83.5713 84.6051 83.7275 84.4033L84.4062 85.1357C84.2337 85.3799 83.9603 85.6012 83.5859 85.7998C83.2116 85.9984 82.7689 86.0977 82.2578 86.0977ZM82.0967 81.7178C81.9437 81.7178 81.8037 81.7454 81.6768 81.8008C81.5498 81.8529 81.4391 81.9294 81.3447 82.0303C81.2471 82.1312 81.1657 82.2516 81.1006 82.3916C81.0355 82.5316 80.9867 82.6878 80.9541 82.8604H83.1807V82.7529C83.1807 82.6097 83.1546 82.4746 83.1025 82.3477C83.0505 82.2207 82.9788 82.11 82.8877 82.0156C82.7965 81.9245 82.6842 81.8529 82.5508 81.8008C82.4206 81.7454 82.2692 81.7178 82.0967 81.7178ZM85.9834 78.5H88.9375V84.8965H90.4512V86H85.9834V84.8965H87.5654V79.6084H85.9834V78.5ZM91.9893 78.5H94.9434V84.8965H96.457V86H91.9893V84.8965H93.5713V79.6084H91.9893V78.5Z" fill="black"/>
<mask id="path-37-inside-12_223_6269" fill="white">
<path d="M112 66H199V99H112V66Z"/>
</mask>
<path d="M112 66H199V99H112V66Z" fill="white" fill-opacity="0.01"/>
<path d="M112 66V65H111V66H112ZM112 66V67H199V66V65H112V66ZM112 99H113V66H112H111V99H112Z" fill="#EAECF0" mask="url(#path-37-inside-12_223_6269)"/>
<path d="M129.337 86H124.488V85.0723L126.788 82.6016C126.967 82.4062 127.118 82.2288 127.242 82.0693C127.366 81.9098 127.467 81.7633 127.545 81.6299C127.62 81.4997 127.674 81.3776 127.706 81.2637C127.742 81.1497 127.76 81.0391 127.76 80.9316C127.76 80.7721 127.737 80.6305 127.691 80.5068C127.646 80.3831 127.582 80.2773 127.501 80.1895C127.416 80.1048 127.315 80.0397 127.198 79.9941C127.084 79.9486 126.957 79.9258 126.817 79.9258C126.635 79.9258 126.474 79.9518 126.334 80.0039C126.197 80.0527 126.083 80.126 125.992 80.2236C125.898 80.3245 125.826 80.4499 125.777 80.5996C125.729 80.7493 125.704 80.9202 125.704 81.1123H124.342C124.342 80.7965 124.402 80.4987 124.522 80.2188C124.643 79.9355 124.814 79.6882 125.035 79.4766C125.253 79.265 125.517 79.099 125.826 78.9785C126.139 78.8548 126.484 78.793 126.861 78.793C127.223 78.793 127.542 78.8434 127.818 78.9443C128.098 79.0452 128.333 79.1868 128.521 79.3691C128.707 79.5514 128.849 79.7712 128.946 80.0283C129.044 80.2822 129.093 80.5638 129.093 80.873C129.093 81.1074 129.055 81.332 128.98 81.5469C128.909 81.7585 128.806 81.9684 128.673 82.1768C128.536 82.3851 128.373 82.5983 128.185 82.8164C127.996 83.0312 127.786 83.2575 127.555 83.4951L126.217 84.9111H129.337V86ZM135.323 83.2949C135.323 83.7539 135.27 84.1592 135.162 84.5107C135.058 84.859 134.907 85.1504 134.708 85.3848C134.509 85.6224 134.267 85.8014 133.98 85.9219C133.694 86.0423 133.372 86.1025 133.014 86.1025C132.659 86.1025 132.338 86.0423 132.052 85.9219C131.765 85.8014 131.523 85.6224 131.324 85.3848C131.122 85.1504 130.966 84.859 130.855 84.5107C130.748 84.1592 130.694 83.7539 130.694 83.2949V81.5957C130.694 81.1367 130.748 80.7331 130.855 80.3848C130.963 80.0332 131.118 79.7386 131.319 79.501C131.518 79.2666 131.759 79.0892 132.042 78.9688C132.328 78.8483 132.649 78.7881 133.004 78.7881C133.362 78.7881 133.684 78.8483 133.971 78.9688C134.257 79.0892 134.501 79.2666 134.703 79.501C134.902 79.7386 135.055 80.0332 135.162 80.3848C135.27 80.7331 135.323 81.1367 135.323 81.5957V83.2949ZM132.062 82.709L133.956 81.2979C133.95 81.0309 133.92 80.8031 133.868 80.6143C133.819 80.4222 133.746 80.2692 133.648 80.1553C133.574 80.0641 133.481 79.9974 133.37 79.9551C133.263 79.9095 133.141 79.8867 133.004 79.8867C132.851 79.8867 132.716 79.916 132.599 79.9746C132.485 80.0299 132.389 80.1146 132.311 80.2285C132.226 80.349 132.162 80.5052 132.12 80.6973C132.081 80.8893 132.062 81.1172 132.062 81.3809V82.167C132.062 82.3232 132.062 82.4274 132.062 82.4795C132.062 82.5316 132.062 82.6081 132.062 82.709ZM133.956 83.5V82.6748C133.956 82.5674 133.956 82.4893 133.956 82.4404C133.956 82.3883 133.956 82.3151 133.956 82.2207L132.062 83.627C132.068 83.8418 132.089 84.0322 132.125 84.1982C132.164 84.3643 132.218 84.5026 132.286 84.6133C132.364 84.7467 132.464 84.846 132.584 84.9111C132.704 84.9762 132.848 85.0088 133.014 85.0088C133.167 85.0088 133.302 84.9811 133.419 84.9258C133.536 84.8672 133.634 84.7793 133.712 84.6621C133.793 84.5384 133.854 84.3805 133.893 84.1885C133.935 83.9932 133.956 83.7637 133.956 83.5ZM141.349 86H136.5V85.0723L138.8 82.6016C138.979 82.4062 139.13 82.2288 139.254 82.0693C139.378 81.9098 139.479 81.7633 139.557 81.6299C139.632 81.4997 139.685 81.3776 139.718 81.2637C139.754 81.1497 139.771 81.0391 139.771 80.9316C139.771 80.7721 139.749 80.6305 139.703 80.5068C139.658 80.3831 139.594 80.2773 139.513 80.1895C139.428 80.1048 139.327 80.0397 139.21 79.9941C139.096 79.9486 138.969 79.9258 138.829 79.9258C138.647 79.9258 138.486 79.9518 138.346 80.0039C138.209 80.0527 138.095 80.126 138.004 80.2236C137.91 80.3245 137.838 80.4499 137.789 80.5996C137.74 80.7493 137.716 80.9202 137.716 81.1123H136.354C136.354 80.7965 136.414 80.4987 136.534 80.2188C136.655 79.9355 136.826 79.6882 137.047 79.4766C137.265 79.265 137.529 79.099 137.838 78.9785C138.15 78.8548 138.495 78.793 138.873 78.793C139.234 78.793 139.553 78.8434 139.83 78.9443C140.11 79.0452 140.344 79.1868 140.533 79.3691C140.719 79.5514 140.86 79.7712 140.958 80.0283C141.056 80.2822 141.104 80.5638 141.104 80.873C141.104 81.1074 141.067 81.332 140.992 81.5469C140.921 81.7585 140.818 81.9684 140.685 82.1768C140.548 82.3851 140.385 82.5983 140.196 82.8164C140.007 83.0312 139.798 83.2575 139.566 83.4951L138.229 84.9111H141.349V86ZM142.774 82.499L143.18 78.8906H147.125V80.043H144.298L144.127 81.6055C144.228 81.5469 144.371 81.4867 144.557 81.4248C144.742 81.363 144.955 81.332 145.196 81.332C145.538 81.332 145.842 81.3874 146.109 81.498C146.38 81.6055 146.607 81.7617 146.793 81.9668C146.975 82.1719 147.115 82.4225 147.213 82.7188C147.311 83.015 147.359 83.3503 147.359 83.7246C147.359 84.0436 147.312 84.3464 147.218 84.6328C147.123 84.9193 146.979 85.1715 146.783 85.3896C146.588 85.6077 146.342 85.7803 146.046 85.9072C145.75 86.0342 145.4 86.0977 144.996 86.0977C144.69 86.0977 144.394 86.0521 144.107 85.9609C143.824 85.8698 143.572 85.7363 143.351 85.5605C143.129 85.3848 142.949 85.1699 142.809 84.916C142.672 84.6589 142.599 84.3659 142.589 84.0371H143.927C143.959 84.3464 144.07 84.5856 144.259 84.7549C144.451 84.9242 144.695 85.0088 144.991 85.0088C145.174 85.0088 145.328 84.9746 145.455 84.9062C145.585 84.8379 145.691 84.7435 145.772 84.623C145.851 84.5026 145.908 84.3594 145.943 84.1934C145.982 84.0273 146.002 83.8483 146.002 83.6562C146.002 83.4674 145.978 83.2949 145.929 83.1387C145.883 82.9792 145.812 82.8424 145.714 82.7285C145.616 82.6146 145.494 82.5267 145.348 82.4648C145.201 82.403 145.029 82.3721 144.83 82.3721C144.697 82.3721 144.581 82.3835 144.483 82.4062C144.386 82.429 144.299 82.4583 144.225 82.4941C144.15 82.5299 144.083 82.5723 144.024 82.6211C143.966 82.6667 143.91 82.7155 143.858 82.7676L142.774 82.499ZM153.468 83.4121H149.4V82.3135H153.468V83.4121ZM159.347 83.2949C159.347 83.7539 159.293 84.1592 159.186 84.5107C159.081 84.859 158.93 85.1504 158.731 85.3848C158.533 85.6224 158.29 85.8014 158.004 85.9219C157.717 86.0423 157.395 86.1025 157.037 86.1025C156.682 86.1025 156.362 86.0423 156.075 85.9219C155.789 85.8014 155.546 85.6224 155.348 85.3848C155.146 85.1504 154.99 84.859 154.879 84.5107C154.771 84.1592 154.718 83.7539 154.718 83.2949V81.5957C154.718 81.1367 154.771 80.7331 154.879 80.3848C154.986 80.0332 155.141 79.7386 155.343 79.501C155.541 79.2666 155.782 79.0892 156.065 78.9688C156.352 78.8483 156.673 78.7881 157.027 78.7881C157.385 78.7881 157.708 78.8483 157.994 78.9688C158.281 79.0892 158.525 79.2666 158.727 79.501C158.925 79.7386 159.078 80.0332 159.186 80.3848C159.293 80.7331 159.347 81.1367 159.347 81.5957V83.2949ZM156.085 82.709L157.979 81.2979C157.973 81.0309 157.944 80.8031 157.892 80.6143C157.843 80.4222 157.77 80.2692 157.672 80.1553C157.597 80.0641 157.504 79.9974 157.394 79.9551C157.286 79.9095 157.164 79.8867 157.027 79.8867C156.874 79.8867 156.739 79.916 156.622 79.9746C156.508 80.0299 156.412 80.1146 156.334 80.2285C156.249 80.349 156.186 80.5052 156.144 80.6973C156.104 80.8893 156.085 81.1172 156.085 81.3809V82.167C156.085 82.3232 156.085 82.4274 156.085 82.4795C156.085 82.5316 156.085 82.6081 156.085 82.709ZM157.979 83.5V82.6748C157.979 82.5674 157.979 82.4893 157.979 82.4404C157.979 82.3883 157.979 82.3151 157.979 82.2207L156.085 83.627C156.091 83.8418 156.113 84.0322 156.148 84.1982C156.188 84.3643 156.241 84.5026 156.31 84.6133C156.388 84.7467 156.487 84.846 156.607 84.9111C156.728 84.9762 156.871 85.0088 157.037 85.0088C157.19 85.0088 157.325 84.9811 157.442 84.9258C157.56 84.8672 157.657 84.7793 157.735 84.6621C157.817 84.5384 157.877 84.3805 157.916 84.1885C157.958 83.9932 157.979 83.7637 157.979 83.5ZM164.327 78.832V79.96H164.249C163.891 79.96 163.574 80.0072 163.297 80.1016C163.023 80.196 162.791 80.3294 162.599 80.502C162.403 80.6745 162.249 80.8812 162.135 81.1221C162.024 81.363 161.954 81.6315 161.925 81.9277C162 81.8464 162.086 81.7666 162.184 81.6885C162.281 81.6071 162.392 81.5339 162.516 81.4688C162.636 81.4069 162.768 81.3564 162.911 81.3174C163.054 81.2783 163.209 81.2588 163.375 81.2588C163.714 81.2588 164.008 81.3239 164.259 81.4541C164.513 81.5811 164.724 81.7536 164.894 81.9717C165.063 82.193 165.188 82.4502 165.27 82.7432C165.354 83.0329 165.396 83.3389 165.396 83.6611C165.396 84.0062 165.341 84.3268 165.23 84.623C165.12 84.9193 164.962 85.1764 164.757 85.3945C164.552 85.6126 164.303 85.7852 164.01 85.9121C163.717 86.0358 163.388 86.0977 163.023 86.0977C162.643 86.0977 162.299 86.0277 161.993 85.8877C161.687 85.7445 161.428 85.5475 161.217 85.2969C161.002 85.0462 160.836 84.75 160.719 84.4082C160.605 84.0632 160.548 83.6872 160.548 83.2803V82.7578C160.548 82.1947 160.624 81.6738 160.777 81.1953C160.93 80.7135 161.158 80.2969 161.461 79.9453C161.764 79.597 162.14 79.3252 162.589 79.1299C163.038 78.9313 163.557 78.832 164.146 78.832H164.327ZM162.979 82.3477C162.849 82.3477 162.727 82.3672 162.613 82.4062C162.499 82.4421 162.395 82.4941 162.301 82.5625C162.219 82.6243 162.145 82.696 162.076 82.7773C162.011 82.8587 161.956 82.9482 161.91 83.0459V83.4463C161.91 83.7067 161.936 83.9346 161.988 84.1299C162.044 84.3252 162.12 84.4863 162.218 84.6133C162.315 84.7435 162.431 84.8411 162.564 84.9062C162.698 84.9714 162.843 85.0039 162.999 85.0039C163.159 85.0039 163.303 84.9714 163.434 84.9062C163.564 84.8379 163.674 84.7451 163.766 84.6279C163.857 84.5107 163.927 84.3724 163.976 84.2129C164.024 84.0501 164.049 83.8727 164.049 83.6807C164.049 83.4886 164.024 83.3112 163.976 83.1484C163.927 82.9857 163.857 82.8441 163.766 82.7236C163.674 82.6064 163.562 82.5153 163.429 82.4502C163.299 82.3818 163.149 82.3477 162.979 82.3477ZM171.485 83.4121H167.418V82.3135H171.485V83.4121ZM177.384 86H172.535V85.0723L174.835 82.6016C175.014 82.4062 175.165 82.2288 175.289 82.0693C175.413 81.9098 175.514 81.7633 175.592 81.6299C175.667 81.4997 175.72 81.3776 175.753 81.2637C175.789 81.1497 175.807 81.0391 175.807 80.9316C175.807 80.7721 175.784 80.6305 175.738 80.5068C175.693 80.3831 175.629 80.2773 175.548 80.1895C175.463 80.1048 175.362 80.0397 175.245 79.9941C175.131 79.9486 175.004 79.9258 174.864 79.9258C174.682 79.9258 174.521 79.9518 174.381 80.0039C174.244 80.0527 174.13 80.126 174.039 80.2236C173.945 80.3245 173.873 80.4499 173.824 80.5996C173.775 80.7493 173.751 80.9202 173.751 81.1123H172.389C172.389 80.7965 172.449 80.4987 172.569 80.2188C172.69 79.9355 172.861 79.6882 173.082 79.4766C173.3 79.265 173.564 79.099 173.873 78.9785C174.186 78.8548 174.531 78.793 174.908 78.793C175.27 78.793 175.589 78.8434 175.865 78.9443C176.145 79.0452 176.38 79.1868 176.568 79.3691C176.754 79.5514 176.896 79.7712 176.993 80.0283C177.091 80.2822 177.14 80.5638 177.14 80.873C177.14 81.1074 177.102 81.332 177.027 81.5469C176.956 81.7585 176.853 81.9684 176.72 82.1768C176.583 82.3851 176.42 82.5983 176.231 82.8164C176.043 83.0312 175.833 83.2575 175.602 83.4951L174.264 84.9111H177.384V86ZM182.066 86H180.694V80.5459L178.897 81.1904V80.0088L181.993 78.8906H182.066V86Z" fill="black"/>
<mask id="path-40-inside-13_223_6269" fill="white">
<path d="M199 66H282V99H199V66Z"/>
</mask>
<path d="M199 66H282V99H199V66Z" fill="white" fill-opacity="0.01"/>
<path d="M199 66V65H198V66H199ZM199 66V67H282V66V65H199V66ZM199 99H200V66H199H198V99H199Z" fill="#EAECF0" mask="url(#path-40-inside-13_223_6269)"/>
<path d="M215.214 84.1348C215.214 83.998 215.193 83.8776 215.15 83.7734C215.111 83.666 215.048 83.5684 214.96 83.4805C214.869 83.3926 214.75 83.3128 214.604 83.2412C214.46 83.1663 214.286 83.0931 214.081 83.0215C213.752 82.9043 213.453 82.7806 213.183 82.6504C212.912 82.5202 212.683 82.3688 212.494 82.1963C212.302 82.0238 212.154 81.8236 212.05 81.5957C211.946 81.3646 211.894 81.0911 211.894 80.7754C211.894 80.4987 211.941 80.2464 212.035 80.0186C212.13 79.7874 212.263 79.5872 212.436 79.418C212.608 79.2487 212.816 79.112 213.061 79.0078C213.305 78.9036 213.576 78.8369 213.876 78.8076V77.7578H214.657V78.8174C214.95 78.8564 215.214 78.9362 215.448 79.0566C215.683 79.1771 215.883 79.3333 216.049 79.5254C216.212 79.7207 216.337 79.9502 216.425 80.2139C216.516 80.4743 216.562 80.7673 216.562 81.0928H215.204C215.204 80.8844 215.178 80.7021 215.126 80.5459C215.074 80.3896 215.001 80.2611 214.906 80.1602C214.822 80.0723 214.719 80.0055 214.599 79.96C214.481 79.9144 214.351 79.8916 214.208 79.8916C214.042 79.8916 213.897 79.9144 213.773 79.96C213.653 80.0023 213.554 80.0625 213.476 80.1406C213.397 80.222 213.339 80.3164 213.3 80.4238C213.264 80.5312 213.246 80.6484 213.246 80.7754C213.246 80.9023 213.264 81.0163 213.3 81.1172C213.339 81.2148 213.404 81.306 213.495 81.3906C213.583 81.4753 213.7 81.5566 213.847 81.6348C213.993 81.7096 214.175 81.7861 214.394 81.8643C214.722 81.988 215.02 82.1165 215.287 82.25C215.554 82.3802 215.784 82.5316 215.976 82.7041C216.164 82.8799 216.309 83.0833 216.41 83.3145C216.514 83.5423 216.566 83.8125 216.566 84.125C216.566 84.4115 216.519 84.6702 216.425 84.9014C216.33 85.1292 216.195 85.3262 216.02 85.4922C215.844 85.6582 215.632 85.7917 215.385 85.8926C215.137 85.9902 214.861 86.0537 214.555 86.083V87.04H213.778V86.083C213.502 86.057 213.233 85.9967 212.973 85.9023C212.712 85.8047 212.483 85.6647 212.284 85.4824C212.082 85.3001 211.921 85.0706 211.801 84.7939C211.68 84.514 211.62 84.1787 211.62 83.7881H212.982C212.982 84.0225 213.017 84.2194 213.085 84.3789C213.153 84.5352 213.243 84.6589 213.354 84.75C213.461 84.8444 213.585 84.9111 213.725 84.9502C213.865 84.9893 214.008 85.0088 214.154 85.0088C214.34 85.0088 214.501 84.986 214.638 84.9404C214.774 84.8916 214.887 84.8249 214.975 84.7402C215.053 84.6654 215.111 84.5758 215.15 84.4717C215.193 84.3675 215.214 84.2552 215.214 84.1348ZM221.02 86H219.647V80.5459L217.851 81.1904V80.0088L220.946 78.8906H221.02V86ZM227.304 78.832V79.96H227.226C226.868 79.96 226.55 80.0072 226.273 80.1016C226 80.196 225.767 80.3294 225.575 80.502C225.38 80.6745 225.225 80.8812 225.111 81.1221C225.001 81.363 224.931 81.6315 224.901 81.9277C224.976 81.8464 225.062 81.7666 225.16 81.6885C225.258 81.6071 225.368 81.5339 225.492 81.4688C225.613 81.4069 225.744 81.3564 225.888 81.3174C226.031 81.2783 226.186 81.2588 226.352 81.2588C226.69 81.2588 226.985 81.3239 227.235 81.4541C227.489 81.5811 227.701 81.7536 227.87 81.9717C228.039 82.193 228.165 82.4502 228.246 82.7432C228.331 83.0329 228.373 83.3389 228.373 83.6611C228.373 84.0062 228.318 84.3268 228.207 84.623C228.096 84.9193 227.938 85.1764 227.733 85.3945C227.528 85.6126 227.279 85.7852 226.986 85.9121C226.693 86.0358 226.365 86.0977 226 86.0977C225.619 86.0977 225.276 86.0277 224.97 85.8877C224.664 85.7445 224.405 85.5475 224.193 85.2969C223.979 85.0462 223.812 84.75 223.695 84.4082C223.581 84.0632 223.524 83.6872 223.524 83.2803V82.7578C223.524 82.1947 223.601 81.6738 223.754 81.1953C223.907 80.7135 224.135 80.2969 224.438 79.9453C224.74 79.597 225.116 79.3252 225.565 79.1299C226.015 78.9313 226.534 78.832 227.123 78.832H227.304ZM225.956 82.3477C225.826 82.3477 225.704 82.3672 225.59 82.4062C225.476 82.4421 225.372 82.4941 225.277 82.5625C225.196 82.6243 225.121 82.696 225.053 82.7773C224.988 82.8587 224.932 82.9482 224.887 83.0459V83.4463C224.887 83.7067 224.913 83.9346 224.965 84.1299C225.02 84.3252 225.097 84.4863 225.194 84.6133C225.292 84.7435 225.408 84.8411 225.541 84.9062C225.674 84.9714 225.819 85.0039 225.976 85.0039C226.135 85.0039 226.28 84.9714 226.41 84.9062C226.54 84.8379 226.651 84.7451 226.742 84.6279C226.833 84.5107 226.903 84.3724 226.952 84.2129C227.001 84.0501 227.025 83.8727 227.025 83.6807C227.025 83.4886 227.001 83.3112 226.952 83.1484C226.903 82.9857 226.833 82.8441 226.742 82.7236C226.651 82.6064 226.539 82.5153 226.405 82.4502C226.275 82.3818 226.125 82.3477 225.956 82.3477ZM229.774 82.499L230.18 78.8906H234.125V80.043H231.298L231.127 81.6055C231.228 81.5469 231.371 81.4867 231.557 81.4248C231.742 81.363 231.955 81.332 232.196 81.332C232.538 81.332 232.842 81.3874 233.109 81.498C233.38 81.6055 233.607 81.7617 233.793 81.9668C233.975 82.1719 234.115 82.4225 234.213 82.7188C234.311 83.015 234.359 83.3503 234.359 83.7246C234.359 84.0436 234.312 84.3464 234.218 84.6328C234.123 84.9193 233.979 85.1715 233.783 85.3896C233.588 85.6077 233.342 85.7803 233.046 85.9072C232.75 86.0342 232.4 86.0977 231.996 86.0977C231.69 86.0977 231.394 86.0521 231.107 85.9609C230.824 85.8698 230.572 85.7363 230.351 85.5605C230.129 85.3848 229.949 85.1699 229.809 84.916C229.672 84.6589 229.599 84.3659 229.589 84.0371H230.927C230.959 84.3464 231.07 84.5856 231.259 84.7549C231.451 84.9242 231.695 85.0088 231.991 85.0088C232.174 85.0088 232.328 84.9746 232.455 84.9062C232.585 84.8379 232.691 84.7435 232.772 84.623C232.851 84.5026 232.908 84.3594 232.943 84.1934C232.982 84.0273 233.002 83.8483 233.002 83.6562C233.002 83.4674 232.978 83.2949 232.929 83.1387C232.883 82.9792 232.812 82.8424 232.714 82.7285C232.616 82.6146 232.494 82.5267 232.348 82.4648C232.201 82.403 232.029 82.3721 231.83 82.3721C231.697 82.3721 231.581 82.3835 231.483 82.4062C231.386 82.429 231.299 82.4583 231.225 82.4941C231.15 82.5299 231.083 82.5723 231.024 82.6211C230.966 82.6667 230.91 82.7155 230.858 82.7676L229.774 82.499ZM237.084 85.2139C237.084 84.9632 237.167 84.7516 237.333 84.5791C237.499 84.4033 237.73 84.3154 238.026 84.3154C238.319 84.3154 238.549 84.4017 238.715 84.5742C238.884 84.7467 238.969 84.96 238.969 85.2139C238.969 85.4678 238.882 85.6794 238.71 85.8486C238.541 86.0146 238.313 86.0977 238.026 86.0977C237.737 86.0977 237.507 86.013 237.338 85.8438C237.169 85.6745 237.084 85.4645 237.084 85.2139ZM241.786 82.499L242.191 78.8906H246.137V80.043H243.31L243.139 81.6055C243.24 81.5469 243.383 81.4867 243.568 81.4248C243.754 81.363 243.967 81.332 244.208 81.332C244.55 81.332 244.854 81.3874 245.121 81.498C245.391 81.6055 245.619 81.7617 245.805 81.9668C245.987 82.1719 246.127 82.4225 246.225 82.7188C246.322 83.015 246.371 83.3503 246.371 83.7246C246.371 84.0436 246.324 84.3464 246.229 84.6328C246.135 84.9193 245.99 85.1715 245.795 85.3896C245.6 85.6077 245.354 85.7803 245.058 85.9072C244.761 86.0342 244.411 86.0977 244.008 86.0977C243.702 86.0977 243.406 86.0521 243.119 85.9609C242.836 85.8698 242.584 85.7363 242.362 85.5605C242.141 85.3848 241.96 85.1699 241.82 84.916C241.684 84.6589 241.61 84.3659 241.601 84.0371H242.938C242.971 84.3464 243.082 84.5856 243.271 84.7549C243.463 84.9242 243.707 85.0088 244.003 85.0088C244.185 85.0088 244.34 84.9746 244.467 84.9062C244.597 84.8379 244.703 84.7435 244.784 84.623C244.862 84.5026 244.919 84.3594 244.955 84.1934C244.994 84.0273 245.014 83.8483 245.014 83.6562C245.014 83.4674 244.989 83.2949 244.94 83.1387C244.895 82.9792 244.823 82.8424 244.726 82.7285C244.628 82.6146 244.506 82.5267 244.359 82.4648C244.213 82.403 244.04 82.3721 243.842 82.3721C243.708 82.3721 243.593 82.3835 243.495 82.4062C243.397 82.429 243.311 82.4583 243.236 82.4941C243.161 82.5299 243.095 82.5723 243.036 82.6211C242.978 82.6667 242.922 82.7155 242.87 82.7676L241.786 82.499ZM252.353 83.2949C252.353 83.7539 252.299 84.1592 252.191 84.5107C252.087 84.859 251.936 85.1504 251.737 85.3848C251.539 85.6224 251.296 85.8014 251.01 85.9219C250.723 86.0423 250.401 86.1025 250.043 86.1025C249.688 86.1025 249.368 86.0423 249.081 85.9219C248.795 85.8014 248.552 85.6224 248.354 85.3848C248.152 85.1504 247.995 84.859 247.885 84.5107C247.777 84.1592 247.724 83.7539 247.724 83.2949V81.5957C247.724 81.1367 247.777 80.7331 247.885 80.3848C247.992 80.0332 248.147 79.7386 248.349 79.501C248.547 79.2666 248.788 79.0892 249.071 78.9688C249.358 78.8483 249.678 78.7881 250.033 78.7881C250.391 78.7881 250.714 78.8483 251 78.9688C251.286 79.0892 251.531 79.2666 251.732 79.501C251.931 79.7386 252.084 80.0332 252.191 80.3848C252.299 80.7331 252.353 81.1367 252.353 81.5957V83.2949ZM249.091 82.709L250.985 81.2979C250.979 81.0309 250.95 80.8031 250.897 80.6143C250.849 80.4222 250.775 80.2692 250.678 80.1553C250.603 80.0641 250.51 79.9974 250.399 79.9551C250.292 79.9095 250.17 79.8867 250.033 79.8867C249.88 79.8867 249.745 79.916 249.628 79.9746C249.514 80.0299 249.418 80.1146 249.34 80.2285C249.255 80.349 249.192 80.5052 249.149 80.6973C249.11 80.8893 249.091 81.1172 249.091 81.3809V82.167C249.091 82.3232 249.091 82.4274 249.091 82.4795C249.091 82.5316 249.091 82.6081 249.091 82.709ZM250.985 83.5V82.6748C250.985 82.5674 250.985 82.4893 250.985 82.4404C250.985 82.3883 250.985 82.3151 250.985 82.2207L249.091 83.627C249.097 83.8418 249.118 84.0322 249.154 84.1982C249.193 84.3643 249.247 84.5026 249.315 84.6133C249.394 84.7467 249.493 84.846 249.613 84.9111C249.734 84.9762 249.877 85.0088 250.043 85.0088C250.196 85.0088 250.331 84.9811 250.448 84.9258C250.565 84.8672 250.663 84.7793 250.741 84.6621C250.823 84.5384 250.883 84.3805 250.922 84.1885C250.964 83.9932 250.985 83.7637 250.985 83.5Z" fill="black"/>
<mask id="path-43-inside-14_223_6269" fill="white">
<path d="M282 66H337V99H282V66Z"/>
</mask>
<path d="M282 66H337V99H282V66Z" fill="white" fill-opacity="0.01"/>
<path d="M282 66V65H281V66H282ZM282 66V67H337V66V65H282V66ZM282 99H283V66H282H281V99H282Z" fill="#EAECF0" mask="url(#path-43-inside-14_223_6269)"/>
<path d="M299.337 86H294.488V85.0723L296.788 82.6016C296.967 82.4062 297.118 82.2288 297.242 82.0693C297.366 81.9098 297.467 81.7633 297.545 81.6299C297.62 81.4997 297.674 81.3776 297.706 81.2637C297.742 81.1497 297.76 81.0391 297.76 80.9316C297.76 80.7721 297.737 80.6305 297.691 80.5068C297.646 80.3831 297.582 80.2773 297.501 80.1895C297.416 80.1048 297.315 80.0397 297.198 79.9941C297.084 79.9486 296.957 79.9258 296.817 79.9258C296.635 79.9258 296.474 79.9518 296.334 80.0039C296.197 80.0527 296.083 80.126 295.992 80.2236C295.898 80.3245 295.826 80.4499 295.777 80.5996C295.729 80.7493 295.704 80.9202 295.704 81.1123H294.342C294.342 80.7965 294.402 80.4987 294.522 80.2188C294.643 79.9355 294.814 79.6882 295.035 79.4766C295.253 79.265 295.517 79.099 295.826 78.9785C296.139 78.8548 296.484 78.793 296.861 78.793C297.223 78.793 297.542 78.8434 297.818 78.9443C298.098 79.0452 298.333 79.1868 298.521 79.3691C298.707 79.5514 298.849 79.7712 298.946 80.0283C299.044 80.2822 299.093 80.5638 299.093 80.873C299.093 81.1074 299.055 81.332 298.98 81.5469C298.909 81.7585 298.806 81.9684 298.673 82.1768C298.536 82.3851 298.373 82.5983 298.185 82.8164C297.996 83.0312 297.786 83.2575 297.555 83.4951L296.217 84.9111H299.337V86Z" fill="black"/>
</g>
</g>
<rect x="0.5" y="0.5" width="336" height="98" rx="3.5" stroke="#EAECF0"/>
<defs>
<clipPath id="clip0_223_6269">
<rect width="337" height="99" rx="4" fill="white"/>
</clipPath>
<clipPath id="clip1_223_6269">
<rect width="337" height="33" fill="white"/>
</clipPath>
<clipPath id="clip2_223_6269">
<rect width="337" height="33" fill="white" transform="translate(0 33)"/>
</clipPath>
<clipPath id="clip3_223_6269">
<rect width="337" height="33" fill="white" transform="translate(0 66)"/>
</clipPath>
</defs>
</svg>
