<svg width="24" height="25" viewBox="0 0 24 25" fill="none" xmlns="http://www.w3.org/2000/svg">
<g clip-path="url(#clip0_296_31321)">
<path d="M12 0.5L12.3888 0.5012L12.7704 0.506L13.5096 0.5264L13.8684 0.542L14.5632 0.5828L15.2268 0.638C20.9688 1.1948 23.3052 3.5312 23.862 9.2732L23.9172 9.9368L23.958 10.6316C23.964 10.7492 23.97 10.8692 23.9736 10.9904L23.994 11.7296L24 12.5L23.994 13.2704L23.9736 14.0096L23.958 14.3684L23.9172 15.0632L23.862 15.7268C23.3052 21.4688 20.9688 23.8052 15.2268 24.362L14.5632 24.4172L13.8684 24.458C13.7508 24.464 13.6308 24.47 13.5096 24.4736L12.7704 24.494L12 24.5L11.2296 24.494L10.4904 24.4736L10.1316 24.458L9.4368 24.4172L8.7732 24.362C3.0312 23.8052 0.6948 21.4688 0.138 15.7268L0.0828 15.0632L0.0420001 14.3684C0.0361623 14.2488 0.0309622 14.1292 0.0264001 14.0096L0.00600014 13.2704C0.00240014 13.0184 0 12.7616 0 12.5L0.00119991 12.1112L0.00600014 11.7296L0.0264001 10.9904L0.0420001 10.6316L0.0828 9.9368L0.138 9.2732C0.6948 3.5312 3.0312 1.1948 8.7732 0.638L9.4368 0.5828L10.1316 0.542C10.2492 0.536 10.3692 0.53 10.4904 0.5264L11.2296 0.506C11.4816 0.5024 11.7384 0.5 12 0.5ZM12 7.7C11.6817 7.7 11.3765 7.82643 11.1515 8.05147C10.9264 8.27652 10.8 8.58174 10.8 8.9V11.3H8.4L8.2596 11.3084C7.95589 11.3445 7.67743 11.4953 7.48112 11.7298C7.28481 11.9643 7.18547 12.265 7.20339 12.5703C7.22132 12.8757 7.35515 13.1626 7.57756 13.3726C7.79996 13.5825 8.09414 13.6997 8.4 13.7H10.8V16.1L10.8084 16.2404C10.8445 16.5441 10.9953 16.8226 11.2298 17.0189C11.4643 17.2152 11.765 17.3145 12.0703 17.2966C12.3757 17.2787 12.6626 17.1448 12.8726 16.9224C13.0825 16.7 13.1997 16.4059 13.2 16.1V13.7H15.6L15.7404 13.6916C16.0441 13.6555 16.3226 13.5047 16.5189 13.2702C16.7152 13.0357 16.8145 12.735 16.7966 12.4297C16.7787 12.1243 16.6448 11.8374 16.4224 11.6274C16.2 11.4175 15.9059 11.3003 15.6 11.3H13.2V8.9L13.1916 8.7596C13.1572 8.4677 13.0169 8.19857 12.7972 8.00326C12.5776 7.80795 12.2939 7.70004 12 7.7Z" fill="black"/>
</g>
<defs>
<clipPath id="clip0_296_31321">
<rect width="24" height="24" fill="white" transform="translate(0 0.5)"/>
</clipPath>
</defs>
</svg>
