<svg width="18" height="18" viewBox="0 0 18 18" fill="none" xmlns="http://www.w3.org/2000/svg">
<path d="M11.9515 5.98422H6.05289C5.86756 5.98553 5.68582 6.03543 5.52582 6.12895C5.36581 6.22246 5.23313 6.35631 5.14104 6.51714C5.04894 6.67797 5.00065 6.86014 5.00098 7.04547C5.00131 7.2308 5.05025 7.4128 5.14292 7.5733L8.09349 12.499C8.18788 12.6549 8.32083 12.7838 8.47953 12.8733C8.63822 12.9628 8.81729 13.0099 8.99949 13.0101C9.18169 13.0103 9.36086 12.9635 9.51973 12.8743C9.6786 12.7851 9.81181 12.6565 9.90651 12.5009L12.8549 7.57875C12.9487 7.41857 12.9987 7.23656 13 7.05095C13.0013 6.86534 12.9538 6.68265 12.8623 6.52117C12.7708 6.35969 12.6384 6.2251 12.4785 6.13086C12.3186 6.03662 12.1371 5.98606 11.9515 5.98422Z" fill="black"/>
</svg>
