<svg width="39" height="40" viewBox="0 0 39 40" fill="none" xmlns="http://www.w3.org/2000/svg">
<path d="M10.5 0.75H26.5C26.6212 0.75 26.7375 0.798089 26.8232 0.883789L37.6162 11.6768C37.7019 11.7625 37.75 11.8788 37.75 12V36C37.75 37.7949 36.2949 39.25 34.5 39.25H10.5C8.70507 39.25 7.25 37.7949 7.25 36V4C7.25 2.20507 8.70508 0.75 10.5 0.75Z" stroke="#D0D5DD" stroke-width="1.5"/>
<path d="M26.5 0.5V8C26.5 10.2091 28.2909 12 30.5 12H38" stroke="#D0D5DD" stroke-width="1.5"/>
<rect x="0.5" y="18" width="26" height="16" rx="2" fill="#079455"/>
<path d="M5.88636 22.7273L7.35298 25.206H7.4098L8.88352 22.7273H10.62L8.40057 26.3636L10.6697 30H8.90128L7.4098 27.5178H7.35298L5.86151 30H4.10014L6.37642 26.3636L4.14276 22.7273H5.88636ZM11.593 30V22.7273H13.1307V28.7322H16.2486V30H11.593ZM21.2122 24.8189C21.1838 24.5324 21.0618 24.3099 20.8464 24.1513C20.631 23.9927 20.3386 23.9134 19.9693 23.9134C19.7183 23.9134 19.5065 23.9489 19.3336 24.0199C19.1608 24.0885 19.0282 24.1844 18.9359 24.3075C18.8459 24.4306 18.801 24.5703 18.801 24.7266C18.7962 24.8568 18.8234 24.9704 18.8826 25.0675C18.9442 25.1645 19.0282 25.2486 19.1348 25.3196C19.2413 25.3883 19.3644 25.4486 19.5041 25.5007C19.6438 25.5504 19.7929 25.593 19.9515 25.6286L20.6049 25.7848C20.9222 25.8558 21.2134 25.9505 21.4785 26.0689C21.7437 26.1873 21.9733 26.3329 22.1674 26.5057C22.3616 26.6785 22.5119 26.8821 22.6184 27.1165C22.7273 27.3509 22.783 27.6196 22.7853 27.9226C22.783 28.3677 22.6693 28.7536 22.4444 29.0803C22.2219 29.4046 21.8999 29.6567 21.4785 29.8366C21.0595 30.0142 20.554 30.103 19.9622 30.103C19.3751 30.103 18.8637 30.013 18.4281 29.8331C17.9949 29.6532 17.6563 29.3868 17.4125 29.0341C17.171 28.679 17.0443 28.2398 17.0325 27.7166H18.5204C18.537 27.9605 18.6068 28.1641 18.7299 28.3274C18.8554 28.4884 19.0223 28.6103 19.2306 28.6932C19.4413 28.7737 19.6793 28.8139 19.9444 28.8139C20.2048 28.8139 20.4309 28.776 20.6227 28.7003C20.8168 28.6245 20.9672 28.5192 21.0737 28.3842C21.1802 28.2493 21.2335 28.0942 21.2335 27.919C21.2335 27.7557 21.185 27.6184 21.0879 27.5071C20.9932 27.3958 20.8535 27.3011 20.6689 27.223C20.4866 27.1449 20.2628 27.0739 19.9977 27.0099L19.2058 26.8111C18.5926 26.6619 18.1085 26.4287 17.7534 26.1115C17.3983 25.7943 17.2219 25.367 17.2243 24.8295C17.2219 24.3892 17.3391 24.0045 17.5758 23.6754C17.8149 23.3464 18.1428 23.0895 18.5595 22.9048C18.9761 22.7202 19.4496 22.6278 19.9799 22.6278C20.5197 22.6278 20.9908 22.7202 21.3933 22.9048C21.7981 23.0895 22.113 23.3464 22.3379 23.6754C22.5628 24.0045 22.6788 24.3857 22.6859 24.8189H21.2122Z" fill="white"/>
</svg>
