<svg width="16" height="16" viewBox="0 0 16 16" fill="none" xmlns="http://www.w3.org/2000/svg">
<path d="M5.87337 4.29603C5.87337 3.23626 6.16162 2.20606 6.69515 1.3108C5.81285 1.48294 4.96903 1.82903 4.21438 2.3332C3.09366 3.08204 2.21951 4.14646 1.7037 5.39174C1.18794 6.63688 1.05311 8.00711 1.31596 9.32896C1.57891 10.6509 2.22827 11.8655 3.18136 12.8186C4.13446 13.7717 5.34906 14.4211 6.67104 14.684C7.99289 14.9469 9.36312 14.8121 10.6083 14.2963C11.8535 13.7805 12.918 12.9063 13.6668 11.7856C14.1711 11.0308 14.5161 10.1865 14.6882 9.30388C13.793 9.83731 12.7636 10.1266 11.704 10.1266C10.1576 10.1266 8.675 9.51189 7.58156 8.41844C6.48811 7.32499 5.87337 5.84239 5.87337 4.29603ZM7.05878 4.29603C7.05878 5.52805 7.5476 6.71005 8.41877 7.58123C9.28995 8.4524 10.4719 8.94122 11.704 8.94122C12.936 8.94122 14.118 8.4524 14.9892 7.58123C15.1586 7.4118 15.4131 7.36038 15.6344 7.45198C15.8559 7.5437 16 7.76015 16 7.99983C16 9.58201 15.5315 11.1288 14.6525 12.4444C13.7735 13.76 12.5234 14.7855 11.0616 15.391C9.59981 15.9965 7.99137 16.155 6.43955 15.8463C4.88766 15.5376 3.46203 14.7757 2.34318 13.6568C1.22433 12.538 0.462384 11.1123 0.153694 9.56045C-0.154952 8.00864 0.00348784 6.40019 0.608953 4.93841C1.21447 3.47656 2.23997 2.22653 3.5556 1.34745C4.87117 0.468499 6.41799 5.85769e-07 8.00017 0C8.23985 0 8.4563 0.144115 8.54802 0.365558C8.63962 0.586949 8.5882 0.841402 8.41877 1.01083C7.5476 1.882 7.05878 3.064 7.05878 4.29603Z" fill="black"/>
</svg>
