<svg width="19" height="19" viewBox="0 0 19 19" fill="none" xmlns="http://www.w3.org/2000/svg">
<path d="M8.86667 2.53333V0.633333C8.86667 0.465363 8.93339 0.304272 9.05217 0.185499C9.17094 0.066726 9.33203 0 9.5 0C9.66797 0 9.82906 0.066726 9.94783 0.185499C10.0666 0.304272 10.1333 0.465363 10.1333 0.633333V2.53333C10.1333 2.7013 10.0666 2.86239 9.94783 2.98117C9.82906 3.09994 9.66797 3.16667 9.5 3.16667C9.33203 3.16667 9.17094 3.09994 9.05217 2.98117C8.93339 2.86239 8.86667 2.7013 8.86667 2.53333ZM14.5667 9.5C14.5667 10.5021 14.2695 11.4817 13.7128 12.3149C13.156 13.1481 12.3647 13.7975 11.4389 14.181C10.5131 14.5645 9.49438 14.6648 8.51154 14.4693C7.52871 14.2738 6.62591 13.7913 5.91733 13.0827C5.20874 12.3741 4.72619 11.4713 4.53069 10.4885C4.33519 9.50562 4.43553 8.48688 4.81901 7.56107C5.20249 6.63526 5.8519 5.84395 6.68511 5.28722C7.51832 4.73049 8.49791 4.43333 9.5 4.43333C10.8433 4.4348 12.1312 4.96908 13.0811 5.91895C14.0309 6.86881 14.5652 8.15669 14.5667 9.5ZM13.3 9.5C13.3 8.74843 13.0771 8.01374 12.6596 7.38883C12.242 6.76393 11.6486 6.27687 10.9542 5.98926C10.2598 5.70164 9.49578 5.62639 8.75866 5.77302C8.02153 5.91964 7.34443 6.28155 6.81299 6.81299C6.28155 7.34443 5.91964 8.02153 5.77302 8.75866C5.62639 9.49578 5.70164 10.2598 5.98926 10.9542C6.27687 11.6486 6.76393 12.242 7.38883 12.6596C8.01374 13.0771 8.74843 13.3 9.5 13.3C10.5075 13.299 11.4734 12.8983 12.1858 12.1858C12.8983 11.4734 13.299 10.5075 13.3 9.5ZM3.98525 4.88142C4.10409 5.00026 4.26527 5.06702 4.43333 5.06702C4.6014 5.06702 4.76258 5.00026 4.88142 4.88142C5.00026 4.76258 5.06702 4.6014 5.06702 4.43333C5.06702 4.26527 5.00026 4.10409 4.88142 3.98525L3.61475 2.71858C3.49591 2.59974 3.33473 2.53298 3.16667 2.53298C2.9986 2.53298 2.83742 2.59974 2.71858 2.71858C2.59974 2.83742 2.53298 2.9986 2.53298 3.16667C2.53298 3.33473 2.59974 3.49591 2.71858 3.61475L3.98525 4.88142ZM3.98525 14.1186L2.71858 15.3852C2.59974 15.5041 2.53298 15.6653 2.53298 15.8333C2.53298 16.0014 2.59974 16.1626 2.71858 16.2814C2.83742 16.4003 2.9986 16.467 3.16667 16.467C3.33473 16.467 3.49591 16.4003 3.61475 16.2814L4.88142 15.0148C4.94026 14.9559 4.98694 14.886 5.01878 14.8092C5.05063 14.7323 5.06702 14.6499 5.06702 14.5667C5.06702 14.4834 5.05063 14.401 5.01878 14.3242C4.98694 14.2473 4.94026 14.1774 4.88142 14.1186C4.82257 14.0597 4.75272 14.0131 4.67583 13.9812C4.59895 13.9494 4.51655 13.933 4.43333 13.933C4.35012 13.933 4.26771 13.9494 4.19083 13.9812C4.11395 14.0131 4.04409 14.0597 3.98525 14.1186ZM14.5667 5.06667C14.6499 5.06673 14.7323 5.05041 14.8091 5.01862C14.886 4.98683 14.9559 4.94021 15.0148 4.88142L16.2814 3.61475C16.4003 3.49591 16.467 3.33473 16.467 3.16667C16.467 2.9986 16.4003 2.83742 16.2814 2.71858C16.1626 2.59974 16.0014 2.53298 15.8333 2.53298C15.6653 2.53298 15.5041 2.59974 15.3852 2.71858L14.1186 3.98525C14.0299 4.07383 13.9695 4.18672 13.945 4.30964C13.9206 4.43256 13.9331 4.55998 13.9811 4.67577C14.029 4.79156 14.1103 4.8905 14.2145 4.96009C14.3188 5.02967 14.4413 5.06677 14.5667 5.06667ZM15.0148 14.1186C14.8959 13.9997 14.7347 13.933 14.5667 13.933C14.3986 13.933 14.2374 13.9997 14.1186 14.1186C13.9997 14.2374 13.933 14.3986 13.933 14.5667C13.933 14.7347 13.9997 14.8959 14.1186 15.0148L15.3852 16.2814C15.4441 16.3403 15.514 16.3869 15.5908 16.4188C15.6677 16.4506 15.7501 16.467 15.8333 16.467C15.9166 16.467 15.999 16.4506 16.0758 16.4188C16.1527 16.3869 16.2226 16.3403 16.2814 16.2814C16.3403 16.2226 16.3869 16.1527 16.4188 16.0758C16.4506 15.999 16.467 15.9166 16.467 15.8333C16.467 15.7501 16.4506 15.6677 16.4188 15.5908C16.3869 15.514 16.3403 15.4441 16.2814 15.3852L15.0148 14.1186ZM3.16667 9.5C3.16667 9.33203 3.09994 9.17094 2.98117 9.05217C2.86239 8.93339 2.7013 8.86667 2.53333 8.86667H0.633333C0.465363 8.86667 0.304272 8.93339 0.185499 9.05217C0.066726 9.17094 0 9.33203 0 9.5C0 9.66797 0.066726 9.82906 0.185499 9.94783C0.304272 10.0666 0.465363 10.1333 0.633333 10.1333H2.53333C2.7013 10.1333 2.86239 10.0666 2.98117 9.94783C3.09994 9.82906 3.16667 9.66797 3.16667 9.5ZM9.5 15.8333C9.33203 15.8333 9.17094 15.9001 9.05217 16.0188C8.93339 16.1376 8.86667 16.2987 8.86667 16.4667V18.3667C8.86667 18.5346 8.93339 18.6957 9.05217 18.8145C9.17094 18.9333 9.33203 19 9.5 19C9.66797 19 9.82906 18.9333 9.94783 18.8145C10.0666 18.6957 10.1333 18.5346 10.1333 18.3667V16.4667C10.1333 16.2987 10.0666 16.1376 9.94783 16.0188C9.82906 15.9001 9.66797 15.8333 9.5 15.8333ZM18.3667 8.86667H16.4667C16.2987 8.86667 16.1376 8.93339 16.0188 9.05217C15.9001 9.17094 15.8333 9.33203 15.8333 9.5C15.8333 9.66797 15.9001 9.82906 16.0188 9.94783C16.1376 10.0666 16.2987 10.1333 16.4667 10.1333H18.3667C18.5346 10.1333 18.6957 10.0666 18.8145 9.94783C18.9333 9.82906 19 9.66797 19 9.5C19 9.33203 18.9333 9.17094 18.8145 9.05217C18.6957 8.93339 18.5346 8.86667 18.3667 8.86667Z" fill="#1C1C1C"/>
</svg>
