<svg width="18" height="18" viewBox="0 0 18 18" fill="none" xmlns="http://www.w3.org/2000/svg">
<path d="M9.00004 5C8.81788 4.99998 8.6388 5.04673 8.48008 5.13575C8.32136 5.22477 8.18835 5.35305 8.0939 5.5082L5.14495 10.4116C5.05128 10.5712 5.00131 10.7524 5.00003 10.9372C4.99874 11.1221 5.0462 11.304 5.13765 11.4648C5.22909 11.6256 5.36133 11.7597 5.52112 11.8536C5.68091 11.9475 5.86266 11.998 6.04818 12H11.9479C12.1333 11.9987 12.315 11.949 12.4751 11.8558C12.6351 11.7626 12.7678 11.6293 12.8599 11.469C12.952 11.3088 13.0003 11.1273 13 10.9426C12.9997 10.758 12.9507 10.5766 12.858 10.4167L9.9069 5.51001C9.81253 5.35449 9.67949 5.22584 9.52063 5.1365C9.36177 5.04716 9.18246 5.00015 9.00004 5Z" fill="black"/>
</svg>
