<svg width="90" height="20" viewBox="0 0 90 20" fill="none" xmlns="http://www.w3.org/2000/svg">
<path d="M88.2881 15.26C86.9681 15.26 85.9414 14.9067 85.2081 14.2C84.4881 13.48 84.1281 12.48 84.1281 11.2V6.81999H82.2881V4.21999H82.3881C82.9481 4.21999 83.3747 4.07999 83.6681 3.79999C83.9747 3.51999 84.1281 3.09999 84.1281 2.53999V1.73999H87.1281V4.21999H89.6881V6.81999H87.1281V11C87.1281 11.3733 87.1948 11.6867 87.3281 11.94C87.4614 12.18 87.6681 12.36 87.9481 12.48C88.2281 12.6 88.5747 12.66 88.9881 12.66C89.0814 12.66 89.1881 12.6533 89.3081 12.64C89.4281 12.6267 89.5548 12.6133 89.6881 12.6V15.14C89.4881 15.1667 89.2614 15.1933 89.0081 15.22C88.7548 15.2467 88.5148 15.26 88.2881 15.26Z" fill="black"/>
<path d="M71.0547 15.14V0H74.0547V6.38L73.6947 5.9C73.948 5.24667 74.3547 4.76667 74.9147 4.46C75.488 4.14 76.1547 3.98 76.9147 3.98C77.7414 3.98 78.4614 4.15333 79.0747 4.5C79.7014 4.84667 80.188 5.33333 80.5347 5.96C80.8814 6.57333 81.0547 7.29333 81.0547 8.12V15.14H78.0547V8.76C78.0547 8.33333 77.968 7.96667 77.7947 7.66C77.6347 7.35333 77.4014 7.11333 77.0947 6.94C76.8014 6.76667 76.4547 6.68 76.0547 6.68C75.668 6.68 75.3214 6.76667 75.0147 6.94C74.708 7.11333 74.468 7.35333 74.2947 7.66C74.1347 7.96667 74.0547 8.33333 74.0547 8.76V15.14H71.0547Z" fill="black"/>
<path d="M63.4465 19.54C62.6065 19.54 61.8265 19.4 61.1065 19.12C60.3865 18.84 59.7665 18.4466 59.2465 17.94C58.7398 17.4466 58.3732 16.86 58.1465 16.18L60.9265 15.2C61.0731 15.7066 61.3732 16.1066 61.8265 16.4C62.2798 16.6933 62.8198 16.84 63.4465 16.84C63.9398 16.84 64.3665 16.7466 64.7265 16.56C65.0865 16.3866 65.3598 16.1266 65.5465 15.78C65.7465 15.4333 65.8465 15.0266 65.8465 14.56V12.06L66.4265 12.78C66.0532 13.3933 65.5732 13.8533 64.9865 14.16C64.3998 14.4533 63.7132 14.6 62.9265 14.6C61.9132 14.6 61.0065 14.3733 60.2065 13.92C59.4065 13.4533 58.7798 12.82 58.3265 12.02C57.8732 11.2066 57.6465 10.2866 57.6465 9.25998C57.6465 8.23331 57.8732 7.32665 58.3265 6.53998C58.7798 5.73998 59.3998 5.11331 60.1865 4.65998C60.9732 4.20665 61.8665 3.97998 62.8665 3.97998C63.6532 3.97998 64.3398 4.13998 64.9265 4.45998C65.5132 4.76665 66.0132 5.23998 66.4265 5.87998L66.0465 6.59998V4.21998H68.8465V14.56C68.8465 15.52 68.6132 16.3733 68.1465 17.12C67.6798 17.88 67.0398 18.4733 66.2265 18.9C65.4265 19.3266 64.4998 19.54 63.4465 19.54ZM63.3465 11.88C63.8532 11.88 64.2932 11.7733 64.6665 11.56C65.0398 11.3466 65.3265 11.0466 65.5265 10.66C65.7398 10.2733 65.8465 9.81998 65.8465 9.29998C65.8465 8.77998 65.7398 8.32665 65.5265 7.93998C65.3132 7.53998 65.0198 7.23331 64.6465 7.01998C64.2732 6.79331 63.8398 6.67998 63.3465 6.67998C62.8398 6.67998 62.3865 6.79331 61.9865 7.01998C61.5998 7.23331 61.2932 7.53998 61.0665 7.93998C60.8532 8.32665 60.7465 8.77998 60.7465 9.29998C60.7465 9.80665 60.8532 10.2533 61.0665 10.64C61.2932 11.0266 61.5998 11.3333 61.9865 11.56C62.3865 11.7733 62.8398 11.88 63.3465 11.88Z" fill="black"/>
<path d="M52.8906 15.14V4.21999H55.8906V15.14H52.8906ZM52.8906 3.23999V0.23999H55.8906V3.23999H52.8906Z" fill="black"/>
<path d="M46.8785 15.38C45.6785 15.38 44.6318 15.1 43.7385 14.54C42.8585 13.9666 42.2585 13.2 41.9385 12.24L44.1385 11.2C44.4185 11.7866 44.7985 12.2466 45.2785 12.58C45.7585 12.9133 46.2918 13.08 46.8785 13.08C47.3051 13.08 47.6318 12.9933 47.8585 12.82C48.0851 12.6466 48.1985 12.4066 48.1985 12.1C48.1985 11.94 48.1585 11.8066 48.0785 11.7C47.9985 11.58 47.8785 11.4733 47.7185 11.38C47.5585 11.2866 47.3585 11.2066 47.1185 11.14L45.2585 10.62C44.3651 10.3666 43.6785 9.95998 43.1985 9.39998C42.7185 8.82665 42.4785 8.15331 42.4785 7.37998C42.4785 6.69998 42.6518 6.10665 42.9985 5.59998C43.3451 5.09331 43.8318 4.69998 44.4585 4.41998C45.0851 4.12665 45.8051 3.97998 46.6185 3.97998C47.6851 3.97998 48.6185 4.23331 49.4185 4.73998C50.2318 5.23331 50.8051 5.93331 51.1385 6.83998L48.9185 7.87998C48.7585 7.42665 48.4651 7.06665 48.0385 6.79998C47.6251 6.51998 47.1518 6.37998 46.6185 6.37998C46.2318 6.37998 45.9251 6.45998 45.6985 6.61998C45.4851 6.77998 45.3785 6.99998 45.3785 7.27998C45.3785 7.42665 45.4185 7.55998 45.4985 7.67998C45.5785 7.79998 45.7051 7.90665 45.8785 7.99998C46.0651 8.09331 46.2918 8.17998 46.5585 8.25998L48.2985 8.77998C49.2051 9.04665 49.8985 9.45331 50.3785 9.99998C50.8585 10.5333 51.0985 11.1933 51.0985 11.98C51.0985 12.66 50.9185 13.2533 50.5585 13.76C50.2118 14.2666 49.7251 14.6666 49.0985 14.96C48.4718 15.24 47.7318 15.38 46.8785 15.38Z" fill="black"/>
<path d="M34.2812 15.38C33.2145 15.38 32.2612 15.1267 31.4212 14.62C30.5812 14.1133 29.9145 13.4267 29.4212 12.56C28.9412 11.6933 28.7012 10.7333 28.7012 9.68C28.7012 8.61333 28.9478 7.65333 29.4412 6.8C29.9345 5.93333 30.6012 5.24667 31.4412 4.74C32.2812 4.23333 33.2212 3.98 34.2612 3.98C35.0612 3.98 35.7678 4.13333 36.3812 4.44C37.0078 4.73333 37.5012 5.15333 37.8612 5.7L37.4012 6.3V0H40.4012V15.14H37.6012V13.14L37.8812 13.76C37.5078 14.2933 37.0012 14.7 36.3612 14.98C35.7212 15.2467 35.0278 15.38 34.2812 15.38ZM34.6412 12.68C35.1878 12.68 35.6678 12.5533 36.0812 12.3C36.4945 12.0467 36.8145 11.6933 37.0412 11.24C37.2812 10.7867 37.4012 10.2667 37.4012 9.68C37.4012 9.09333 37.2812 8.57333 37.0412 8.12C36.8145 7.66667 36.4945 7.31333 36.0812 7.06C35.6678 6.80667 35.1878 6.68 34.6412 6.68C34.0945 6.68 33.6012 6.81333 33.1612 7.08C32.7345 7.33333 32.4012 7.68667 32.1612 8.14C31.9212 8.58 31.8012 9.09333 31.8012 9.68C31.8012 10.2667 31.9212 10.7867 32.1612 11.24C32.4012 11.6933 32.7345 12.0467 33.1612 12.3C33.6012 12.5533 34.0945 12.68 34.6412 12.68Z" fill="black"/>
<path d="M17.168 15.14V4.21998H19.968V6.37998L19.808 5.89998C20.0613 5.24665 20.468 4.76665 21.028 4.45998C21.6013 4.13998 22.268 3.97998 23.028 3.97998C23.8546 3.97998 24.5746 4.15331 25.188 4.49998C25.8146 4.84665 26.3013 5.33331 26.648 5.95998C26.9946 6.57331 27.168 7.29331 27.168 8.11998V15.14H24.168V8.75998C24.168 8.33331 24.0813 7.96665 23.908 7.65998C23.748 7.35331 23.5146 7.11331 23.208 6.93998C22.9146 6.76665 22.568 6.67998 22.168 6.67998C21.7813 6.67998 21.4346 6.76665 21.128 6.93998C20.8213 7.11331 20.5813 7.35331 20.408 7.65998C20.248 7.96665 20.168 8.33331 20.168 8.75998V15.14H17.168Z" fill="black"/>
<path d="M11.9727 15.14V4.21999H14.9727V15.14H11.9727ZM11.9727 3.23999V0.23999H14.9727V3.23999H11.9727Z" fill="black"/>
<path d="M0 15.14V0H3V6.38L2.64 5.9C2.89333 5.24667 3.3 4.76667 3.86 4.46C4.43333 4.14 5.1 3.98 5.86 3.98C6.68667 3.98 7.40667 4.15333 8.02 4.5C8.64667 4.84667 9.13333 5.33333 9.48 5.96C9.82667 6.57333 10 7.29333 10 8.12V15.14H7V8.76C7 8.33333 6.91333 7.96667 6.74 7.66C6.58 7.35333 6.34667 7.11333 6.04 6.94C5.74667 6.76667 5.4 6.68 5 6.68C4.61333 6.68 4.26667 6.76667 3.96 6.94C3.65333 7.11333 3.41333 7.35333 3.24 7.66C3.08 7.96667 3 8.33333 3 8.76V15.14H0Z" fill="black"/>
</svg>
