<svg width="109" height="23" viewBox="0 0 109 23" fill="none" xmlns="http://www.w3.org/2000/svg">
<path d="M106.811 17.9622C105.258 17.9622 104.049 17.5463 103.186 16.7145C102.339 15.867 101.915 14.6899 101.915 13.1832V8.02765H99.749V4.96725H99.8667C100.526 4.96725 101.028 4.80246 101.373 4.47287C101.734 4.14329 101.915 3.64892 101.915 2.98976V2.0481H105.446V4.96725H108.459V8.02765H105.446V12.9478C105.446 13.3873 105.525 13.7561 105.681 14.0543C105.838 14.3368 106.082 14.5487 106.411 14.6899C106.741 14.8311 107.149 14.9018 107.635 14.9018C107.745 14.9018 107.871 14.8939 108.012 14.8782C108.153 14.8625 108.302 14.8468 108.459 14.8311V17.8209C108.224 17.8523 107.957 17.8837 107.659 17.9151C107.361 17.9465 107.078 17.9622 106.811 17.9622Z" fill="black"/>
<path d="M86.5264 17.8209V0H90.0576V7.50975L89.6338 6.94475C89.932 6.17573 90.4107 5.61073 91.0699 5.24976C91.7447 4.8731 92.5295 4.68476 93.424 4.68476C94.3971 4.68476 95.2446 4.88879 95.9665 5.29685C96.7042 5.7049 97.277 6.27774 97.6851 7.01538C98.0931 7.73732 98.2971 8.58481 98.2971 9.55786V17.8209H94.7659V10.3112C94.7659 9.80897 94.6639 9.37738 94.4599 9.01641C94.2715 8.65544 93.9969 8.37294 93.6359 8.16891C93.2906 7.96489 92.8826 7.86287 92.4118 7.86287C91.9566 7.86287 91.5486 7.96489 91.1876 8.16891C90.8266 8.37294 90.5441 8.65544 90.3401 9.01641C90.1518 9.37738 90.0576 9.80897 90.0576 10.3112V17.8209H86.5264Z" fill="black"/>
<path d="M77.5712 23C76.5824 23 75.6643 22.8352 74.8168 22.5056C73.9693 22.1761 73.2395 21.7131 72.6275 21.1167C72.0311 20.536 71.5995 19.8454 71.3327 19.045L74.605 17.8915C74.7776 18.4879 75.1307 18.9587 75.6643 19.304C76.1979 19.6493 76.8335 19.8219 77.5712 19.8219C78.1519 19.8219 78.6541 19.712 79.0778 19.4923C79.5016 19.2883 79.8233 18.9823 80.043 18.5742C80.2785 18.1661 80.3962 17.6875 80.3962 17.1382V14.1955L81.0789 15.043C80.6394 15.7649 80.0744 16.3064 79.3839 16.6673C78.6933 17.0126 77.8851 17.1852 76.9591 17.1852C75.7663 17.1852 74.6991 16.9184 73.7575 16.3848C72.8158 15.8355 72.0782 15.0901 71.5446 14.1484C71.0109 13.191 70.7441 12.1081 70.7441 10.8997C70.7441 9.69119 71.0109 8.62398 71.5446 7.69801C72.0782 6.75635 72.8079 6.01871 73.7339 5.4851C74.6599 4.9515 75.7114 4.68469 76.8885 4.68469C77.8144 4.68469 78.6227 4.87303 79.3133 5.24969C80.0038 5.61066 80.5924 6.16781 81.0789 6.92114L80.6316 7.76863V4.96719H83.9274V17.1382C83.9274 18.2682 83.6528 19.2726 83.1035 20.1515C82.5541 21.0461 81.8008 21.7445 80.8435 22.2467C79.9018 22.7489 78.811 23 77.5712 23ZM77.4535 13.9836C78.0499 13.9836 78.5678 13.858 79.0072 13.6069C79.4467 13.3558 79.7841 13.0027 80.0195 12.5476C80.2706 12.0924 80.3962 11.5588 80.3962 10.9467C80.3962 10.3347 80.2706 9.80105 80.0195 9.34592C79.7684 8.87509 79.4231 8.51412 78.9837 8.26301C78.5442 7.9962 78.0342 7.8628 77.4535 7.8628C76.8571 7.8628 76.3235 7.9962 75.8527 8.26301C75.3975 8.51412 75.0365 8.87509 74.7697 9.34592C74.5186 9.80105 74.3931 10.3347 74.3931 10.9467C74.3931 11.5431 74.5186 12.0689 74.7697 12.524C75.0365 12.9792 75.3975 13.3401 75.8527 13.6069C76.3235 13.858 76.8571 13.9836 77.4535 13.9836Z" fill="black"/>
<path d="M65.1465 17.8209V4.96724H68.6777V17.8209H65.1465ZM65.1465 3.8137V0.282471H68.6777V3.8137H65.1465Z" fill="black"/>
<path d="M58.0696 18.1034C56.6572 18.1034 55.4251 17.7738 54.3736 17.1146C53.3378 16.4398 52.6315 15.5373 52.2549 14.4073L54.8445 13.1832C55.174 13.8737 55.6213 14.4152 56.1863 14.8076C56.7513 15.1999 57.3791 15.3961 58.0696 15.3961C58.5719 15.3961 58.9564 15.2941 59.2232 15.0901C59.49 14.886 59.6234 14.6035 59.6234 14.2426C59.6234 14.0542 59.5763 13.8973 59.4821 13.7717C59.388 13.6305 59.2467 13.5049 59.0584 13.3951C58.8701 13.2852 58.6346 13.191 58.3521 13.1126L56.1628 12.5005C55.1113 12.2023 54.303 11.7236 53.738 11.0644C53.173 10.3896 52.8905 9.59703 52.8905 8.68675C52.8905 7.88634 53.0945 7.18794 53.5026 6.59156C53.9106 5.99517 54.4835 5.53219 55.2211 5.20261C55.9588 4.85733 56.8062 4.68469 57.7636 4.68469C59.0192 4.68469 60.1178 4.98289 61.0594 5.57927C62.0168 6.15996 62.6916 6.98392 63.084 8.05113L60.4709 9.27529C60.2825 8.74168 59.9373 8.31794 59.4351 8.00405C58.9485 7.67447 58.3914 7.50968 57.7636 7.50968C57.3085 7.50968 56.9475 7.60384 56.6807 7.79218C56.4296 7.98051 56.304 8.23946 56.304 8.56905C56.304 8.74168 56.3511 8.89863 56.4453 9.03988C56.5394 9.18113 56.6885 9.30668 56.8926 9.41654C57.1123 9.5264 57.3791 9.62842 57.693 9.72258L59.7411 10.3347C60.8083 10.6485 61.6244 11.1272 62.1894 11.7707C62.7544 12.3985 63.0369 13.1753 63.0369 14.1013C63.0369 14.9017 62.825 15.6001 62.4013 16.1965C61.9932 16.7929 61.4204 17.2637 60.6828 17.609C59.9451 17.9386 59.0741 18.1034 58.0696 18.1034Z" fill="black"/>
<path d="M43.2409 18.1034C41.9854 18.1034 40.8632 17.8052 39.8745 17.2089C38.8858 16.6125 38.101 15.8042 37.5203 14.7841C36.9554 13.764 36.6729 12.634 36.6729 11.3941C36.6729 10.1386 36.9632 9.00856 37.5439 8.00412C38.1246 6.98399 38.9093 6.17573 39.898 5.57934C40.8868 4.98296 41.9932 4.68476 43.2174 4.68476C44.1591 4.68476 44.9909 4.86525 45.7128 5.22622C46.4504 5.5715 47.0311 6.06587 47.4549 6.70934L46.9134 7.41558V0H50.4446V17.8209H47.1488V15.4668L47.4784 16.1966C47.039 16.8243 46.4426 17.303 45.6893 17.6326C44.9359 17.9465 44.1198 18.1034 43.2409 18.1034ZM43.6647 14.9253C44.3082 14.9253 44.8732 14.7762 45.3597 14.478C45.8462 14.1799 46.2229 13.764 46.4897 13.2303C46.7722 12.6967 46.9134 12.0847 46.9134 11.3941C46.9134 10.7036 46.7722 10.0915 46.4897 9.55786C46.2229 9.02425 45.8462 8.60835 45.3597 8.31016C44.8732 8.01197 44.3082 7.86287 43.6647 7.86287C43.0212 7.86287 42.4405 8.01982 41.9226 8.3337C41.4204 8.6319 41.028 9.0478 40.7455 9.5814C40.463 10.0993 40.3218 10.7036 40.3218 11.3941C40.3218 12.0847 40.463 12.6967 40.7455 13.2303C41.028 13.764 41.4204 14.1799 41.9226 14.478C42.4405 14.7762 43.0212 14.9253 43.6647 14.9253Z" fill="black"/>
<path d="M23.0977 17.8209V4.96719H26.3935V7.50968L26.2051 6.94468C26.5033 6.17566 26.982 5.61066 27.6412 5.24969C28.316 4.87303 29.1007 4.68469 29.9953 4.68469C30.9684 4.68469 31.8159 4.88872 32.5378 5.29677C33.2754 5.70483 33.8483 6.27767 34.2563 7.0153C34.6644 7.73725 34.8684 8.58474 34.8684 9.55779V17.8209H31.3372V10.3111C31.3372 9.8089 31.2352 9.37731 31.0312 9.01633C30.8428 8.65536 30.5682 8.37287 30.2072 8.16884C29.8619 7.96481 29.4539 7.8628 28.983 7.8628C28.5279 7.8628 28.1199 7.96481 27.7589 8.16884C27.3979 8.37287 27.1154 8.65536 26.9114 9.01633C26.7231 9.37731 26.6289 9.8089 26.6289 10.3111V17.8209H23.0977Z" fill="black"/>
<path d="M16.9824 17.8209V4.96724H20.5137V17.8209H16.9824ZM16.9824 3.8137V0.282471H20.5137V3.8137H16.9824Z" fill="black"/>
<path d="M0 17.8209V0.282471H3.64894V7.86285H10.476V0.282471H14.1249V17.8209H10.476V11.041H3.64894V17.8209H0Z" fill="black"/>
</svg>
